<?xml version="1.0" encoding="UTF-8" standalone="no"?>
<!-- Created with Inkscape (http://www.inkscape.org/) -->

<svg
   xmlns:dc="http://purl.org/dc/elements/1.1/"
   xmlns:cc="http://creativecommons.org/ns#"
   xmlns:rdf="http://www.w3.org/1999/02/22-rdf-syntax-ns#"
   xmlns:svg="http://www.w3.org/2000/svg"
   xmlns="http://www.w3.org/2000/svg"
   xmlns:sodipodi="http://sodipodi.sourceforge.net/DTD/sodipodi-0.dtd"
   xmlns:inkscape="http://www.inkscape.org/namespaces/inkscape"
   version="1.1"
   id="svg2"
   xml:space="preserve"
   width="341.88272"
   height="37.044121"
   viewBox="0 0 341.88272 37.044121"
   sodipodi:docname="1bot.svg"
   inkscape:version="0.92.4 5da689c313, 2019-01-14"><metadata
     id="metadata8"><rdf:RDF><cc:Work
         rdf:about=""><dc:format>image/svg+xml</dc:format><dc:type
           rdf:resource="http://purl.org/dc/dcmitype/StillImage" /><dc:title></dc:title></cc:Work></rdf:RDF></metadata><defs
     id="defs6" /><sodipodi:namedview
     pagecolor="#ffffff"
     bordercolor="#666666"
     borderopacity="1"
     objecttolerance="10"
     gridtolerance="10"
     guidetolerance="10"
     inkscape:pageopacity="0"
     inkscape:pageshadow="2"
     inkscape:window-width="1853"
     inkscape:window-height="1145"
     id="namedview4"
     showgrid="false"
     inkscape:zoom="2.5150202"
     inkscape:cx="297.01146"
     inkscape:cy="12.641413"
     inkscape:window-x="67"
     inkscape:window-y="27"
     inkscape:window-maximized="1"
     inkscape:current-layer="g10" /><g
     id="g10"
     inkscape:groupmode="layer"
     inkscape:label="ink_ext_XXXXXX"
     transform="matrix(1.3333333,0,0,-1.3333333,0,37.044266)"><g
       id="g226"><path
         d="m 240.057,19.9199 c 0.339,0 1.097,1.2422 1.097,1.6153 0,0.373 -0.758,1.6464 -1.097,1.6464 -0.313,0 -1.096,-1.3046 -1.096,-1.6464 0,-0.3418 0.783,-1.6153 1.096,-1.6153"
         style="fill:#100f0d;fill-opacity:1;fill-rule:nonzero;stroke:none;stroke-width:0.1"
         id="path14"
         inkscape:connector-curvature="0" /><path
         d="M 254.328,7.49805 V 12.748 c 0,2.42 -0.777,5.9532 -4.361,5.9532 -2.594,0 -3.932,-2.461 -3.877,-2.0801 v 1.8262 c 0,0.3183 -0.162,0.5097 -0.322,0.5097 -0.616,0 -1.073,-1.0449 -3.165,-1.6718 -0.134,-0.0313 -0.517,-0.0356 -0.531,-0.2774 0,-0.668 2.1,0.8692 2.065,-1.7441 V 7.37109 c 0,-1.48086 -0.725,-1.59609 -1.253,-1.73867 -0.034,-7.8e-4 -0.059,0.00547 -0.101,-0.00156 -0.537,0.03125 -1.681,0.24023 -1.681,1.38867 V 18.4473 c 0,0.3183 -0.161,0.5078 -0.321,0.5078 -0.615,0 -1.012,-1.1192 -2.722,-1.6914 -0.135,-0.0313 -0.381,-0.0586 -0.381,-0.25 0,-0.668 1.535,0.6289 1.47,-1.75 V 7.75195 c 0.059,-1.92187 -0.99,-2.10547 -1.568,-2.10547 -0.867,0.01172 -0.652,-0.09765 -0.652,-0.36757 0.027,-0.31797 0.549,-0.3418 1.408,-0.34532 0.295,0 1.027,0.11133 1.883,0.11133 1.097,0 1.925,-0.125 2.488,-0.125 0.322,0 1.189,0.12696 2.605,0.12696 1.553,0 2.088,-0.12696 2.541,-0.12696 0.403,0 0.864,0.17578 0.59,0.44531 -0.431,0.42188 -2.353,-0.06445 -2.353,2.13282 v 7.32035 c -0.028,0.5097 0.908,2.4824 3.156,2.4824 2.166,0 3.129,-2.3867 3.129,-3.9785 V 7.37109 c -0.027,-2.33593 -0.834,-1.59765 -1.15,-2.07031 -0.178,-0.26367 0.132,-0.38086 0.48,-0.38086 0.35,0 0.91,0.12696 1.926,0.12696 1.31,0 1.885,-0.1211 2.232,-0.1211 0.268,0 0.754,0.20508 0.455,0.44727 -0.675,0.54297 -2.007,-0.28516 -1.99,2.125"
         style="fill:#100f0d;fill-opacity:1;fill-rule:nonzero;stroke:none;stroke-width:0.1"
         id="path16"
         inkscape:connector-curvature="0" /><path
         d="m 50.5078,25.8711 c 0.3774,0.0547 0.5656,0.1953 0.5656,0.1953 0,0.252 -0.0535,0.3086 -0.4043,0.3086 -0.673,0 -1.0773,-0.1133 -1.7507,-0.1133 -0.727,0 -1.293,0.084 -1.9125,0.084 -0.3504,0 -0.3235,-0.1113 -0.3235,-0.3086 0,-0.2226 0.6735,-0.082 1.0508,-0.9219 0.2152,-0.4472 0.1348,-1.4004 -0.0809,-1.9589 L 42.4805,8.96289 40.2715,15.2598 39.409,17.5566 c 0,0 -0.1344,-0.057 0.4848,1.8477 l 1.2125,3.6387 c 0.5929,1.791 1.1835,2.7304 1.9394,2.7441 0.9516,0.0156 0.9504,0.5879 0.2227,0.5879 -0.727,0 -1.1657,-0.0566 -1.8121,-0.0566 -0.6731,0 -1.0235,0.0566 -1.7508,0.0566 -0.2692,0 -0.5657,-0.084 -0.5387,-0.3086 0.027,-0.2246 0.4309,-0.1406 0.727,-0.3066 0.4855,-0.2539 0.8082,-1.2891 0.4582,-2.3809 l -1.4278,-4.5625 -1.6164,4.2539 c -0.323,0.8125 -0.75,2.5977 0.0328,2.7598 0.7551,0.1543 0.6524,0.5449 0.1946,0.5449 -0.8887,0 -1.3586,-0.1133 -2.2207,-0.1133 -0.943,0 -1.6434,0.1133 -2.5321,0.1133 -0.1886,0 -0.539,-0.0293 -0.4308,-0.3926 0.0535,-0.2226 0.5117,-0.1406 0.7812,-0.3086 1.077,-0.6992 1.293,-1.5957 1.6699,-2.6035 l 2.3703,-6.6894 c 0.4313,-1.2032 0.4583,-0.7563 0.1083,-1.793 L 35.207,8.90625 30.1152,23.4902 c -0.4039,1.0938 -0.6191,1.8496 0.2696,2.2696 0.3773,0.1953 0.4886,0.2324 0.539,0.3066 0.0496,0.0742 0.0961,0.3281 -0.4582,0.3086 -0.9156,-0.0332 -1.482,-0.1133 -2.3972,-0.1133 -0.97,0 -1.6434,0.1133 -2.5325,0.1133 -0.2964,0 -0.35,-0.1406 -0.35,-0.3633 0,-0.3379 0.727,-0.1133 1.3465,-0.8398 0.3504,-0.3926 1.0242,-1.709 1.1852,-2.1856 L 33.8672,5.31641 c 0.1121,-0.26368 0.1398,-0.77735 0.5043,-0.77735 0.2816,0.00196 0.3363,0.59375 0.4344,0.81836 l 3.2296,8.86718 3.152,-8.42577 c 0.134,-0.33594 0.3156,-1.25781 0.6461,-1.25977 0.2723,0 0.3703,0.43555 0.5109,0.85742 l 6.0891,17.42192 c 0.5117,1.4004 1.1043,2.8847 2.0742,3.0527"
         style="fill:#100f0d;fill-opacity:1;fill-rule:nonzero;stroke:none;stroke-width:0.1"
         id="path18"
         inkscape:connector-curvature="0" /><path
         d="m 118.364,5.67383 c -3.129,0 -4.36,3.88086 -4.36,7.04497 0,2.7421 1.07,5.2675 3.691,5.2675 3.183,0 4.333,-3.3965 4.333,-6.7207 0,-4.00193 -1.417,-5.59177 -3.664,-5.59177 z m -17.543,4.96677 c -2.1491,0 -2.8671,2.0742 -2.8671,4.0352 0,2.0234 0.6109,3.6972 2.7601,3.6972 2.178,0 3.049,-2.2343 3.049,-4.1953 0,-1.9941 -0.91,-3.5371 -2.942,-3.5371 z M 98.7383,5.92188 c 0.2168,0.01367 0.2765,-0.07813 2.7247,-0.17774 2.532,-0.05859 3.444,-0.80078 3.599,-1.45312 0.275,-1.15625 -0.549,-3.636723 -4.183,-3.396489 C 98.5926,1.04297 97.923,2.13086 97.7461,2.38281 96.8934,3.58984 97.5965,5.85352 98.7383,5.92188 Z M 118.096,18.9453 c -3.37,0 -5.964,-3.3887 -5.964,-7.3574 0,-2.01602 0.544,-3.62501 1.467,-4.77813 -0.32,-0.21758 -0.949,-0.71836 -2.221,-0.71836 -1.104,0 -1.742,0.65664 -1.798,2.07265 V 16.791 c 0,0 3.307,0.0098 3.491,0.0098 0.228,0 0.671,1.4922 0.687,1.5683 0.039,0.1875 0.103,0.3379 0.123,0.4727 0.044,0.2852 -0.177,0.3086 -0.377,0.0078 -0.162,-0.1543 -0.331,-0.5664 -1.021,-0.5664 h -2.897 c 0,2.4883 0.028,3.6172 -0.359,3.6172 -0.37,0 -0.314,-0.1016 -0.65,-1.209 -0.45,-1.4883 -1.845,-2.2992 -2.717,-2.7715 -0.391,-0.0886 -0.835,-0.1207 -1.33,-0.0117 -0.758,0.166 -1.654,1.0859 -3.945,1.0859 -2.4573,0 -4.6061,-2.0078 -4.6061,-4.7011 0,-1.4516 0.6414,-2.8477 1.7734,-3.5879 -0.2093,-0.125 -1.5796,-1.27932 -1.4136,-2.63674 0,0 -0.0278,-1.40625 1.0765,-1.88125 C 97.0723,6.05078 96.7281,5.82188 96.4219,5.53281 95.7,5.79805 94.643,5.59766 94.643,7.49961 V 12.752 c 0,2.4199 -0.7758,5.9511 -4.3598,5.9511 -2.5945,0 -3.9316,-2.4609 -3.8785,-2.0785 v 1.8246 c 0,0.3184 -0.1602,0.5098 -0.3207,0.5098 -0.6152,0 -0.7488,-1.0215 -3.0012,-1.6016 -0.1336,-0.0332 -0.4351,-0.1035 -0.4488,-0.3476 0,-0.6684 1.8066,0.7304 1.8183,-1.7442 V 7.37305 c 0,-1.69727 -1.3464,-1.70117 -1.5851,-1.72461 -0.0953,0 -0.2016,-0.0043 -0.3192,-0.00586 -0.5691,0.05469 -1.5585,0.30586 -1.5585,1.37695 V 18.4473 c 0,0.3183 -0.1606,0.5078 -0.3211,0.5078 -0.6153,0 -1.011,-1.1192 -2.7227,-1.6914 -0.134,-0.0313 -0.3801,-0.0586 -0.3801,-0.25 0,-0.668 1.536,0.6289 1.4715,-1.75 V 7.75195 C 79.0926,5.91602 78.1422,5.66914 77.5523,5.65039 76.8398,5.73672 76.2957,6.02656 76.2957,7.11523 v 5.31447 c 0,2.7383 -1.043,6.2715 -4.4664,6.2715 -1.5246,0 -2.8352,-0.8399 -3.8516,-1.9848 v 9.1488 c 0,0.3184 -0.1609,0.5 -0.3207,0.5098 -0.4117,0.0254 -1.1023,-1.2324 -3.055,-1.6777 -0.134,-0.0313 -0.6364,-0.0723 -0.6364,-0.2637 0,-0.668 2.0262,0.3164 2.0598,-1.75 V 7.08398 c 0,-1.56054 -1.3359,-1.34765 -1.5781,-1.8457 -0.0418,-0.2168 0.08,-0.31836 0.2675,-0.31836 0.4278,0 1.6043,0.125 2.4336,0.125 0.8293,0 2.1668,-0.125 2.7286,-0.125 0.321,0 0.4543,0.0625 0.4543,0.44531 -0.2793,0.54297 -2.3536,-0.2871 -2.3536,2.45118 v 6.71489 c 0,1.6226 1.9258,2.8652 3.1297,2.8652 0.936,0 3.2364,-0.7324 3.2364,-4.6801 V 6.89258 c 0,-1.14649 -1.2176,-1.26563 -1.3106,-1.625 0,-0.25391 0.1602,-0.34766 0.4277,-0.34766 0.2942,0 1.1496,0.125 2.1934,0.125 0.5828,0 1.1094,-0.03008 1.5531,-0.05664 0.2414,-0.04609 0.5867,-0.05273 1.0164,-0.05469 0.2942,0 1.027,0.11133 1.8828,0.11133 0.8446,0 1.5266,-0.07304 2.0539,-0.10703 0.1028,-0.00625 0.2075,-0.01055 0.3145,-0.01328 0.0375,-7.8e-4 0.0836,-0.00469 0.1191,-0.00469 0.002,0 0.0043,0.00156 0.0063,0.00156 0.3266,-0.00507 0.6301,4e-4 0.7555,4e-4 0.3207,0 0.8558,0.12695 2.2734,0.12695 1.5512,0 2.0859,-0.12695 2.541,-0.12695 0.4008,0 0.8621,0.17773 0.5883,0.44531 -0.4305,0.42187 -2.3539,-0.06446 -2.3539,2.13242 v 7.32069 c -0.0266,0.5098 0.9098,2.4824 3.1562,2.4824 2.1664,0 3.1293,-2.3867 3.1293,-3.9785 V 7.37305 c 0,-2.07032 -0.8328,-1.59766 -1.15,-2.07032 -0.1777,-0.26367 0.134,-0.38085 0.4817,-0.38085 0.3476,0 0.909,0.12695 1.9258,0.12695 0.9628,0 1.5769,-0.06836 1.9742,-0.10469 -0.2949,-0.43086 -0.5004,-0.92617 -0.5293,-1.44805 -0.1434,-2.587887 3.0297,-3.5156213 5.6934,-3.480465 5.286,0.0703125 6.784,3.742185 5.69,5.685545 -1.13,2.00781 -3.548,1.92578 -5.867,1.91797 -4.3418,-0.01562 -3.5195,2.67386 -1.752,2.57426 0.4078,-0.0235 0.2129,-0.1387 1.621,-0.1387 2.512,0 4.92,1.707 4.849,4.5195 -0.006,0.2379 0.053,1.0586 -0.551,2.211 1.175,-0.0051 0.708,0.0039 2.49,0.0019 l -0.007,-7.87694 c 0,-3.5586 1.694,-4.16211 2.963,-4.16211 1.804,0 3.113,1.18672 3.347,1.74179 1.061,-1.13515 2.539,-1.74179 4.254,-1.74179 3.29,0 5.778,3.0332 5.778,7.00155 0,6.0024 -3.772,7.1957 -5.805,7.1957"
         style="fill:#100f0d;fill-opacity:1;fill-rule:nonzero;stroke:none;stroke-width:0.1"
         id="path20"
         inkscape:connector-curvature="0" /><path
         d="M 135.385,7.49805 V 12.748 c 0,2.42 -0.776,5.9532 -4.359,5.9532 -2.595,0 -3.932,-2.461 -3.879,-2.0801 v 1.8262 c 0,0.3183 -0.16,0.5097 -0.321,0.5097 -0.615,0 -1.072,-1.0449 -3.165,-1.6718 -0.134,-0.0313 -0.518,-0.0356 -0.531,-0.2774 0,-0.668 2.101,0.8692 2.065,-1.7441 V 7.37109 c 0,-2.07031 -1.392,-1.57031 -1.708,-2.11132 -0.161,-0.27539 0.263,-0.33985 0.611,-0.33985 0.321,0 0.856,0.12696 2.273,0.12696 1.552,0 2.087,-0.12696 2.541,-0.12696 0.402,0 0.863,0.17578 0.589,0.44531 -0.43,0.42188 -2.354,-0.06445 -2.354,2.13282 v 7.32035 c -0.027,0.5097 0.91,2.4824 3.157,2.4824 2.166,0 3.128,-2.3867 3.128,-3.9785 V 7.37109 c -0.026,-2.33593 -0.833,-1.59765 -1.149,-2.07031 -0.178,-0.26367 0.133,-0.38086 0.48,-0.38086 0.349,0 0.911,0.12696 1.926,0.12696 1.311,0 1.885,-0.1211 2.232,-0.1211 0.268,0 0.754,0.20508 0.455,0.44727 -0.675,0.54297 -2.008,-0.28516 -1.991,2.125"
         style="fill:#100f0d;fill-opacity:1;fill-rule:nonzero;stroke:none;stroke-width:0.1"
         id="path22"
         inkscape:connector-curvature="0" /><path
         d="m 79.9445,19.9199 c 0.3399,0 1.0969,1.2422 1.0969,1.6153 0,0.373 -0.757,1.6464 -1.0969,1.6464 -0.3129,0 -1.0961,-1.3046 -1.0961,-1.6464 0,-0.3418 0.7832,-1.6153 1.0961,-1.6153"
         style="fill:#100f0d;fill-opacity:1;fill-rule:nonzero;stroke:none;stroke-width:0.1"
         id="path24"
         inkscape:connector-curvature="0" /><path
         d="m 53.366,8.27734 c 0,-1.70117 -1.7265,-2.59961 -2.689,-2.59961 -1.4172,0 -2.411,0.92188 -2.411,2.75 0,2.82427 3.3883,3.33787 5.1,3.78707 z m 8.7074,4.46486 c -0.5254,0.2519 -1.3117,0.7012 -1.7,0.9141 -1.6777,0.9179 -2.3398,1.5195 -2.3871,2.3789 -0.0777,1.4882 1.1856,2.2597 2.2805,2.1523 2.6203,0.0449 2.9715,-2.8906 3.2395,-2.8906 0.4003,0 0.2937,0.3847 0.2937,1.25 0,0.2246 0.027,1.3144 -0.1348,1.5703 -0.3207,0.4824 -2.1742,0.7637 -2.6277,0.7637 -0.1145,0 -0.5434,0.0136 -0.6172,0.0156 -0.1269,0.0039 -0.2926,-0.0156 -0.2926,-0.0156 -1.8656,0.0293 -3.6109,-1.1524 -3.5554,-3.6504 0.0511,-2.2774 2.7277,-3.5766 4.1726,-4.4414 1.0688,-0.6094 2.3278,-1.18949 2.3117,-2.64847 -0.0207,-1.66407 -1.3101,-2.76758 -2.698,-2.67579 -3.2508,0.05469 -2.8055,4.13282 -3.3918,4.13282 -0.4004,0 -0.3191,-1.02539 -0.3207,-1.57032 C 56.6441,7.49922 56.6348,7.01484 56.6344,6.60781 56.5684,6.2332 56.4195,5.88984 56.0723,5.86914 54.7918,5.79297 55.1004,7.82813 55.1004,8.91797 v 6.64253 c -0.0621,2.0333 -1.5926,3.3594 -3.9184,3.3594 -3.1933,0 -5.4765,-3.9336 -4.3945,-5.1562 0.2586,-0.293 1.2996,0.832 1.3621,0.8926 0.0633,0.0585 0.077,0.1328 0.077,0.1328 -0.0067,1.3398 1.0011,3.0468 2.4461,3.1894 1.6503,0.1641 2.475,-1.0703 2.475,-2.7402 v -2.1621 c -6.2582,-1.25 -7.1645,-3.33206 -7.1645,-5.03128 0,-2.27734 1.6016,-3.29687 3.3398,-3.29687 1.4981,0 2.9688,0.70508 4.0922,1.85937 0.3477,-1.05859 1.0442,-1.69726 2.0868,-1.66601 0.3617,0.00976 0.416,-0.08985 1.5144,0.38476 0.3805,0.09883 0.3598,0.09375 0.7957,0.01289 0.5766,-0.20195 1.3633,-0.58945 2.7473,-0.58945 2.0969,-0.03086 3.9765,1.91055 3.9765,4.3125 0,1.48089 -0.4312,2.42029 -2.4625,3.68009"
         style="fill:#100f0d;fill-opacity:1;fill-rule:nonzero;stroke:none;stroke-width:0.1"
         id="path26"
         inkscape:connector-curvature="0" /><path
         d="m 189.476,18.1484 c 1.473,0 2.973,-1.6074 2.973,-3.4062 0,-0.4824 -0.161,-0.6426 -0.536,-0.6426 h -5.277 c 0,1.7676 1.178,4.0488 2.84,4.0488 z m 5.25,-10.12301 c -0.588,0 -1.473,-1.67187 -3.777,-1.67187 -1.635,0 -4.313,1.57617 -4.313,6.87888 h 7.127 c 0.615,0 0.91,-0.0332 0.91,0.5449 0,1.2848 -1.447,5.1094 -4.742,5.1094 -3.35,0 -5.252,-3.4375 -5.252,-7.5508 0,-2.12106 1.395,-6.58785 5.412,-6.58785 2.412,0 4.742,2.3125 4.742,3.05273 0,0.0957 0,0.22461 -0.107,0.22461"
         style="fill:#100f0d;fill-opacity:1;fill-rule:nonzero;stroke:none;stroke-width:0.1"
         id="path44"
         inkscape:connector-curvature="0" /><path
         d="m 156.746,25.7266 c 0.105,0.1718 -0.257,0.248 -0.376,0.248 -0.425,0 -1.409,-0.1074 -1.858,-0.1074 -0.923,0 -1.69,0.0879 -2.613,0.0879 -0.071,0 -0.472,-0.0508 -0.474,-0.1875 -0.006,-0.6543 2.199,0.1094 2.199,-2.6797 V 12.166 c 0,-3.22889 -1.016,-6.61912 -5.462,-6.61912 -3.191,0 -4.92,1.99609 -4.92,6.37302 v 11.8789 c 0,1.9688 1.542,1.545 1.575,1.9844 0.031,0.4219 -1.366,0.1719 -1.484,0.1719 -0.733,0 -1.249,-0.0762 -2.006,-0.0762 -0.638,0 -1.412,0.0957 -2.027,0.0957 -0.118,0 -0.554,0.0234 -0.626,-0.1523 -0.241,-0.584 1.97,-0.2735 1.97,-1.8868 V 12.6582 c 0,-4.21289 1.183,-8.33593 7.4,-8.23242 7.374,0.12305 7.236,6.75392 7.236,8.09372 v 10.541 c 0,2.5157 1.232,2.2774 1.466,2.6661"
         style="fill:#100f0d;fill-opacity:1;fill-rule:nonzero;stroke:none;stroke-width:0.1"
         id="path46"
         inkscape:connector-curvature="0" /><path
         d="m 185.865,18.2383 c 0.179,0.209 0.234,0.5488 -0.594,0.4765 -0.455,0 -0.799,-0.08 -1.256,-0.08 -0.588,0 -0.699,0.0195 -1.262,0.041 -0.701,0.0234 -0.892,-0.0528 -0.851,-0.2637 0.121,-0.625 1.597,-0.0137 1.398,-1.8574 -0.17,-1.5488 -0.67,-2.8809 -1.18,-4.2031 l -1.794,-4.76762 -2.625,7.94492 c -0.323,0.9926 -0.456,1.5238 -0.456,1.6215 0,0.9941 1.202,0.7656 1.467,1.1836 0.17,0.2656 -0.181,0.4062 -0.556,0.4062 -0.321,0 -0.69,-0.1113 -1.68,-0.1347 -0.822,-0.0215 -1.404,-0.0157 -1.764,0.0488 -0.924,0.168 -0.849,-0.3418 -0.527,-0.5039 0.316,-0.1602 0.471,-0.0117 0.943,-1.3969 l 4.045,-11.42147 c 0.082,-0.23047 0.188,-0.79297 0.537,-0.79297 0.403,0 0.403,0.39649 0.91,1.75391 0,0 3.868,10.81643 4.133,11.20903 0.524,0.7695 0.92,0.5156 1.112,0.7363"
         style="fill:#100f0d;fill-opacity:1;fill-rule:nonzero;stroke:none;stroke-width:0.1"
         id="path48"
         inkscape:connector-curvature="0" /><path
         d="m 200.796,18.7578 c -1.095,0 -1.861,-1.3223 -2.41,-2.2344 h -0.051 v 1.9825 c 0,0.3144 -0.156,0.5039 -0.312,0.5039 -0.42,0 -0.742,-0.8438 -2.965,-1.3692 -0.131,-0.0312 -0.502,-0.1035 -0.502,-0.2929 0,-0.6622 1.879,0.1992 1.877,-1.9883 V 7.02734 c 0,-1.28906 -1.33,-1.16406 -1.33,-1.82617 0,-0.1875 0.078,-0.28125 0.287,-0.28125 0.182,0 0.652,0.125 2.396,0.125 1.461,0 2.086,-0.125 2.452,-0.125 0.285,0 0.416,0.0625 0.416,0.34571 0,1.00781 -2.319,-0.50391 -2.319,2.42148 V 14.793 c 0,0.4082 0.625,1.8554 1.694,1.8554 0.937,0 1.054,-0.7226 1.549,-0.7226 0.312,0 0.937,0.9433 0.937,1.4156 0,0.5961 -1.172,1.4164 -1.719,1.4164"
         style="fill:#100f0d;fill-opacity:1;fill-rule:nonzero;stroke:none;stroke-width:0.1"
         id="path50"
         inkscape:connector-curvature="0" /><path
         d="m 234.414,18.6543 c -0.279,0 -0.994,-0.043 -1.637,-0.043 -0.783,0 -1.168,0.0938 -1.502,0.0938 -0.504,0 -0.988,-0.0039 -0.902,-0.3321 0.098,-0.371 1.789,-0.2382 1.789,-2.08 0,-0.2364 0,-0.545 -0.336,-1.7696 l -2.152,-6.84957 -2.99,8.41597 c 0,0 -0.141,0.2715 -0.141,0.8184 0,1.3613 1.592,1.2129 1.654,1.4551 0.051,0.1992 -0.217,0.4062 -0.636,0.4062 -0.448,0 -1.106,-0.0039 -2.096,-0.0039 -0.157,0 -0.3,-0.0011 -0.442,-0.0027 0.001,0.0019 0.002,0.0051 0.002,0.0066 h -1.207 c -0.017,0 -0.027,-0.0078 -0.047,-0.0078 h -2.896 c 0,2.4883 0.027,3.1387 -0.359,3.1387 -0.372,0 -0.315,-0.1016 -0.651,-1.209 -0.558,-1.8516 -2.597,-2.6641 -3.248,-3.0668 -0.158,-0.0777 -0.15,-0.107 -0.156,-0.2027 -0.014,-0.2348 0.775,-0.1387 2.394,-0.1797 l -0.007,-8.33204 c 0,-3.5586 1.693,-4.16211 2.963,-4.16211 1.933,0 3.314,1.37304 3.394,1.85937 0,0.27539 -0.035,0.30274 -0.191,0.2793 -0.27,-0.13086 -0.883,-0.79531 -2.348,-0.79531 -1.104,0 -1.742,0.65664 -1.797,2.07265 v 9.10544 c 0,0 2.58,0.0075 3.307,0.009 0.04,-0.0617 0.078,-0.1254 0.103,-0.2004 l 3.09,-8.72654 c 0.252,-0.71484 0.4,-0.94765 0.703,-2.21093 0.199,-0.82422 0.125,-1.5586 0.125,-1.5586 -0.299,-1.3125 -1.105,-2.06445 -2.334,-4.4843737 -0.119,-0.2343753 1.774,0.0234377 1.867,0.0527347 0.153,0.046875 0.135,0.089843 0.319,0.433593 l 1.363,4.062896 3.813,11.71442 c 0.558,2.045 1.443,1.6719 1.578,1.9512 0.08,0.1719 -0.053,0.3418 -0.389,0.3418"
         style="fill:#100f0d;fill-opacity:1;fill-rule:nonzero;stroke:none;stroke-width:0.1"
         id="path52"
         inkscape:connector-curvature="0" /><path
         d="M 229.48,4.84961 229.412,4.64688 229.398,4.60352 Z"
         style="fill:#100f0d;fill-opacity:1;fill-rule:nonzero;stroke:none;stroke-width:0.1"
         id="path54"
         inkscape:connector-curvature="0" /><path
         d="m 214.247,19.9199 c 0.34,0 1.096,1.2422 1.096,1.6153 0,0.373 -0.756,1.6464 -1.096,1.6464 -0.314,0 -1.097,-1.3046 -1.097,-1.6464 0,-0.3418 0.783,-1.6153 1.097,-1.6153"
         style="fill:#100f0d;fill-opacity:1;fill-rule:nonzero;stroke:none;stroke-width:0.1"
         id="path56"
         inkscape:connector-curvature="0" /><path
         d="m 216.972,5.63086 c -0.535,0.03125 -1.68,0.24023 -1.68,1.38867 V 18.4473 c 0,0.3183 -0.162,0.5078 -0.322,0.5078 -0.615,0 -1.01,-1.1192 -2.723,-1.6914 -0.132,-0.0313 -0.378,-0.0586 -0.378,-0.25 0,-0.668 1.535,0.6289 1.47,-1.75 V 7.75195 c 0.059,-1.92187 -0.99,-2.10547 -1.57,-2.10547 -0.867,0.01172 -0.65,-0.09765 -0.65,-0.36757 0.025,-0.31797 0.548,-0.3418 1.408,-0.34532 0.293,0 1.025,0.11133 1.882,0.11133 1.096,0 1.926,-0.125 2.487,-0.125 0.348,0 0.781,0.82969 0.076,0.71094"
         style="fill:#100f0d;fill-opacity:1;fill-rule:nonzero;stroke:none;stroke-width:0.1"
         id="path58"
         inkscape:connector-curvature="0" /><path
         d="m 171.958,19.9199 c 0.34,0 1.098,1.2422 1.098,1.6153 0,0.373 -0.758,1.6464 -1.098,1.6464 -0.313,0 -1.096,-1.3046 -1.096,-1.6464 0,-0.3418 0.783,-1.6153 1.096,-1.6153"
         style="fill:#100f0d;fill-opacity:1;fill-rule:nonzero;stroke:none;stroke-width:0.1"
         id="path60"
         inkscape:connector-curvature="0" /><path
         d="m 174.685,5.63086 c -0.537,0.03125 -1.682,0.24023 -1.682,1.38867 V 18.4473 c 0,0.3183 -0.16,0.5078 -0.321,0.5078 -0.615,0 -1.011,-1.1192 -2.722,-1.6914 -0.135,-0.0313 -0.381,-0.0586 -0.381,-0.25 0,-0.668 1.535,0.6289 1.471,-1.75 V 7.75195 c 0.058,-1.92187 -0.991,-2.10547 -1.569,-2.10547 -0.072,7.9e-4 -0.126,-3.9e-4 -0.184,-0.00117 -0.561,0.1 -1.089,0.33008 -1.077,1.85274 V 12.748 c 0,2.42 -0.778,5.9532 -4.36,5.9532 -2.595,0 -3.932,-2.461 -3.878,-2.0801 v 1.8262 c 0,0.3183 -0.161,0.5097 -0.321,0.5097 -0.616,0 -1.074,-1.0449 -3.166,-1.6718 -0.134,-0.0313 -0.518,-0.0356 -0.531,-0.2774 0,-0.668 2.101,0.8692 2.065,-1.7441 V 7.37109 c 0,-2.07031 -1.392,-1.57031 -1.708,-2.11132 -0.162,-0.27539 0.263,-0.33985 0.611,-0.33985 0.321,0 0.856,0.12696 2.273,0.12696 1.552,0 2.087,-0.12696 2.541,-0.12696 0.402,0 0.863,0.17578 0.589,0.44531 -0.43,0.42188 -2.353,-0.06445 -2.353,2.13282 v 7.32035 c -0.028,0.5097 0.908,2.4824 3.156,2.4824 2.166,0 3.128,-2.3867 3.128,-3.9785 V 7.37109 c -0.027,-2.33593 -0.834,-1.59765 -1.15,-2.07031 -0.178,-0.26367 0.133,-0.38086 0.48,-0.38086 0.35,0 0.911,0.12696 1.926,0.12696 1.311,0 1.885,-0.1211 2.233,-0.1211 0.04,0 0.085,0.00586 0.131,0.01445 0.114,-0.00273 0.221,-0.00625 0.351,-0.00664 0.295,0 1.028,0.11133 1.883,0.11133 1.098,0 1.926,-0.125 2.489,-0.125 0.347,0 0.781,0.82969 0.076,0.71094"
         style="fill:#100f0d;fill-opacity:1;fill-rule:nonzero;stroke:none;stroke-width:0.1"
         id="path62"
         inkscape:connector-curvature="0" /><path
         d="m 208.476,12.7539 c -0.525,0.252 -1.313,0.7031 -1.701,0.9141 -1.678,0.9199 -2.34,1.5215 -2.387,2.3789 -0.078,1.4902 1.186,2.2597 2.281,2.1523 2.619,0.0469 2.971,-2.8887 3.239,-2.8887 0.4,0 0.295,0.3848 0.295,1.25 0,0.2247 0.027,1.3145 -0.135,1.5704 -0.321,0.4804 -2.174,0.7617 -2.629,0.7617 -0.113,0 -0.543,0.0137 -0.617,0.0156 -0.127,0.0039 -0.291,-0.0156 -0.291,-0.0156 -1.868,0.0312 -3.612,-1.1504 -3.557,-3.6504 0.051,-2.2758 2.729,-3.5742 4.174,-4.4414 1.068,-0.6074 2.326,-1.18752 2.31,-2.64689 -0.019,-1.66563 -1.31,-2.76914 -2.697,-2.67735 -3.252,0.05469 -2.807,4.13477 -3.392,4.13477 -0.401,0 -0.319,-1.02539 -0.321,-1.57031 -0.004,-1.29141 -0.056,-2.35157 0.098,-2.54141 0.049,-0.0582 0.207,-0.02891 0.521,-0.02891 0.641,0 1.424,-0.70898 3.295,-0.70898 2.096,-0.03125 3.977,1.91016 3.977,4.31445 0,1.47853 -0.432,2.41993 -2.463,3.67773"
         style="fill:#100f0d;fill-opacity:1;fill-rule:nonzero;stroke:none;stroke-width:0.1"
         id="path64"
         inkscape:connector-curvature="0" /><path
         d="m 10.8008,26.5316 v 0 H 10.8 c -4e-4,0 -8e-4,0 -8e-4,0 v 0 C 10.707,26.5309 6.24922,26.4891 0,27.7832 V 9.80234 9.76523 C 0.00390625,9.48086 0.00742188,9.27969 0.00742188,9.27656 V 9.26172 L 0.00820313,9.24688 C 0.0488281,8.41016 0.298047,7.74375 0.794922,7.17539 1.12227,6.82305 1.57891,6.45508 2.21563,6.1 2.39063,6.00352 2.57969,5.90742 2.78359,5.80938 2.93789,5.73711 3.10078,5.66563 3.27227,5.59531 v 0 H 3.27344 C 3.4082,5.53984 3.84258,5.34648 3.98789,5.29297 L 10.8,2.71445 v 0 0 0 0 l 6.8121,2.57852 c 0.1453,0.05351 0.5797,0.24687 0.7145,0.30234 h 0.0011 v 0 c 0.1715,0.07032 0.3344,0.1418 0.4887,0.21407 0.2039,0.09804 0.393,0.19414 0.5684,0.29062 0.6363,0.35508 1.0929,0.72305 1.4203,1.07539 0.4969,0.56836 0.7461,1.23477 0.7867,2.07149 l 8e-4,0.01484 v 0.01484 c 4e-4,0.00313 0.0035,0.2043 0.0074,0.48867 V 9.80234 27.7832 C 15.3508,26.4891 10.893,26.5309 10.8008,26.5316"
         style="fill:#25715e;fill-opacity:1;fill-rule:nonzero;stroke:none;stroke-width:0.1"
         id="path66"
         inkscape:connector-curvature="0" /><path
         d="m 10.8008,25.4609 v 4e-4 l -8e-4,-4e-4 c -4e-4,0 -8e-4,4e-4 -8e-4,4e-4 v -4e-4 c -0.084,-7e-4 -4.15975,-0.0386 -9.873028,1.1446 V 21.998 C 6.63945,20.8152 10.7152,20.8531 10.7992,20.8539 v 0 c 0,0 4e-4,0 8e-4,0 h 8e-4 v 0 c 0.084,-8e-4 4.1597,-0.0387 9.873,1.1441 v 4.6075 c -5.7133,-1.1832 -9.789,-1.1453 -9.873,-1.1446"
         style="fill:#e0bfa2;fill-opacity:1;fill-rule:nonzero;stroke:none;stroke-width:0.1"
         id="path68"
         inkscape:connector-curvature="0" /><path
         d="m 10.8008,20.8539 v 0 H 10.8 c -4e-4,0 -8e-4,0 -8e-4,0 v 0 c -0.084,-8e-4 -4.15975,-0.0387 -9.873028,1.1441 v -5.6222 -4.607 C 6.63945,10.5855 10.7152,10.6234 10.7992,10.6242 v 0 c 0,0 4e-4,0 8e-4,0 h 8e-4 v 0 c 0.084,-8e-4 4.1597,-0.0387 9.873,1.1446 v 4.607 5.6222 c -5.7133,-1.1828 -9.789,-1.1449 -9.873,-1.1441"
         style="fill:#a31c21;fill-opacity:1;fill-rule:nonzero;stroke:none;stroke-width:0.1"
         id="path70"
         inkscape:connector-curvature="0" /><path
         d="M 0.932813,9.67188 0.933594,9.6582 C 0.970703,8.89336 1.19844,8.28438 1.65313,7.76445 1.95195,7.44258 2.36953,7.10625 2.95156,6.78125 3.11172,6.69336 3.28438,6.60547 3.47109,6.51563 3.61211,6.44961 3.76094,6.38438 3.91797,6.32031 v -3.9e-4 h 7.8e-4 C 4.04219,6.26914 4.43906,6.09258 4.57188,6.04336 L 10.8,3.68633 v 0 0 0 0 l 6.2281,2.35703 c 0.1328,0.04922 0.5297,0.22578 0.6532,0.27656 h 7e-4 v 3.9e-4 c 0.1571,0.06407 0.3059,0.1293 0.4469,0.19532 0.1867,0.08984 0.3594,0.17773 0.5195,0.26562 0.5821,0.325 0.9996,0.66133 1.2989,0.9832 0.4543,0.51993 0.682,1.12891 0.7191,1.89375 l 8e-4,0.01368 v 0.01367 c 0,0.00312 0.0031,0.18672 0.0066,0.44685 v 0.034 1.6024 c -5.7133,-1.1833 -9.789,-1.1454 -9.873,-1.1446 v 0 H 10.8 c -4e-4,0 -8e-4,0 -8e-4,0 v 0 c -0.084,-8e-4 -4.15975,-0.0387 -9.873028,1.1446 V 10.1324 C 0.929688,9.87227 0.932813,9.68867 0.932813,9.68555 V 9.67188"
         style="fill:#e0bfa2;fill-opacity:1;fill-rule:nonzero;stroke:none;stroke-width:0.1"
         id="path72"
         inkscape:connector-curvature="0" /><path
         d="M 4.40859,25.5242 4.87383,24.1398 6.33125,24.127 5.16094,23.259 5.59844,21.866 4.40859,22.7125 3.22031,21.866 l 0.43711,1.393 -1.17109,0.868 1.4582,0.0128 0.46406,1.3844"
         style="fill:#25715e;fill-opacity:1;fill-rule:evenodd;stroke:none;stroke-width:0.1"
         id="path74"
         inkscape:connector-curvature="0" /><path
         d="m 17.191,25.5242 0.4653,-1.3844 1.4574,-0.0128 -1.1703,-0.868 0.4371,-1.393 -1.1895,0.8465 -1.1883,-0.8465 0.4371,1.393 -1.1714,0.868 1.4586,0.0128 0.464,1.3844"
         style="fill:#25715e;fill-opacity:1;fill-rule:evenodd;stroke:none;stroke-width:0.1"
         id="path76"
         inkscape:connector-curvature="0" /><path
         d="m 10.8,24.9859 0.4652,-1.3847 1.4575,-0.0129 -1.1704,-0.868 0.4372,-1.393 -1.1895,0.8465 -1.18828,-0.8465 0.43708,1.393 -1.17146,0.868 1.45856,0.0129 0.4641,1.3847"
         style="fill:#25715e;fill-opacity:1;fill-rule:evenodd;stroke:none;stroke-width:0.1"
         id="path78"
         inkscape:connector-curvature="0" /><path
         d="M 10.8,10.2566 10.2887,9.74531 v 0 -1.38593 l 0.2629,-0.73086 v -1.2375 h 0.4968 v 1.2375 l 0.2629,0.73086 v 0 1.38593 L 10.8,10.2566"
         style="fill:#25715e;fill-opacity:1;fill-rule:nonzero;stroke:none;stroke-width:0.1"
         id="path80"
         inkscape:connector-curvature="0" /><path
         d="M 11.0484,5.27617 V 6.01758 H 10.5516 V 5.27617 L 10.2887,4.79414 10.8,4.16172 11.3113,4.79414 11.0484,5.27617"
         style="fill:#25715e;fill-opacity:1;fill-rule:nonzero;stroke:none;stroke-width:0.1"
         id="path82"
         inkscape:connector-curvature="0" /><path
         d="M 11.4195,6.01758 V 5.44766 l 0.3321,-0.3586 0.5757,0.46211 v 0.46641 h -0.9078"
         style="fill:#25715e;fill-opacity:1;fill-rule:nonzero;stroke:none;stroke-width:0.1"
         id="path84"
         inkscape:connector-curvature="0" /><path
         d="M 12.0363,8.30664 11.4195,7.62773 V 6.39102 h 0.4965 v 0.73554 l 0.4856,0.52539 4e-4,-3.9e-4 0.6136,-0.39883 0.3961,0.39922 v 0.65469 h -1.3754"
         style="fill:#25715e;fill-opacity:1;fill-rule:nonzero;stroke:none;stroke-width:0.1"
         id="path86"
         inkscape:connector-curvature="0" /><path
         d="M 10.1805,6.01758 V 5.44766 L 9.84844,5.08906 9.27266,5.55117 v 0.46641 h 0.90784"
         style="fill:#25715e;fill-opacity:1;fill-rule:nonzero;stroke:none;stroke-width:0.1"
         id="path88"
         inkscape:connector-curvature="0" /><path
         d="M 9.56367,8.30664 10.1805,7.62773 V 6.39102 H 9.68398 V 7.12656 L 9.19844,7.65195 9.19805,7.65156 8.58438,7.25273 8.18828,7.65195 v 0.65469 h 1.37539"
         style="fill:#25715e;fill-opacity:1;fill-rule:nonzero;stroke:none;stroke-width:0.1"
         id="path90"
         inkscape:connector-curvature="0" /><path
         d="m 15.5059,19.2305 v -5.868 h -3.9454 l -0.275,-0.2383 -0.4855,-0.4207 -0.4855,0.4207 -0.275,0.2383 H 6.09453 v 5.868 L 5.25977,18.6184 v -6.0868 h 4.64609 l 0.40864,-0.3535 0.4855,-0.4207 0.4855,0.4207 0.4086,0.3535 h 4.6461 v 6.0868 l -0.8343,0.6121"
         style="fill:#e0bfa2;fill-opacity:1;fill-rule:nonzero;stroke:none;stroke-width:0.1"
         id="path92"
         inkscape:connector-curvature="0" /><path
         d="M 11.4324,19.7203 11.2855,19.593 10.8,19.1723 10.3145,19.593 10.1676,19.7203 H 6.92891 v -5.5285 h 3.24529 l 0.2266,-0.1961 0.3992,-0.3461 0.3992,0.3461 0.2266,0.1961 h 3.2453 v 5.5285 h -3.2387"
         style="fill:#e0bfa2;fill-opacity:1;fill-rule:nonzero;stroke:none;stroke-width:0.1"
         id="path94"
         inkscape:connector-curvature="0" /><path
         d="m 17.1914,18.0016 v -3.7457 c 1.0664,0.155 2.2356,0.355 3.4824,0.6132 v 3.7454 c -1.2468,-0.2582 -2.416,-0.4582 -3.4824,-0.6129"
         style="fill:#e0bfa2;fill-opacity:1;fill-rule:nonzero;stroke:none;stroke-width:0.1"
         id="path96"
         inkscape:connector-curvature="0" /><path
         d="m 4.40859,18.0016 c -1.0664,0.1547 -2.23554,0.3547 -3.482418,0.6129 V 14.8691 C 2.17305,14.6109 3.34219,14.4109 4.40859,14.2559 v 3.7457"
         style="fill:#e0bfa2;fill-opacity:1;fill-rule:nonzero;stroke:none;stroke-width:0.1"
         id="path98"
         inkscape:connector-curvature="0" /><path
         d="m 17.191,10.7547 -0.3582,-0.3578 v 0 -0.97073 l 0.184,-0.51133 v -0.8664 h 0.348 v 0.8664 l 0.184,0.51133 v 0 0.97073 l -0.3578,0.3578"
         style="fill:#25715e;fill-opacity:1;fill-rule:nonzero;stroke:none;stroke-width:0.1"
         id="path100"
         inkscape:connector-curvature="0" /><path
         d="m 17.3648,7.26758 v 0.51914 h -0.348 V 7.26758 l -0.184,-0.33711 0.3582,-0.44297 0.3578,0.44297 -0.184,0.33711"
         style="fill:#25715e;fill-opacity:1;fill-rule:nonzero;stroke:none;stroke-width:0.1"
         id="path102"
         inkscape:connector-curvature="0" /><path
         d="M 17.6246,7.78672 V 7.38789 l 0.2324,-0.25117 0.4035,0.32344 v 0.32656 h -0.6359"
         style="fill:#25715e;fill-opacity:1;fill-rule:nonzero;stroke:none;stroke-width:0.1"
         id="path104"
         inkscape:connector-curvature="0" /><path
         d="M 18.0566,9.38945 17.6246,8.91406 V 8.04844 h 0.3477 v 0.51484 l 0.3398,0.36797 4e-4,-3.9e-4 0.4301,-0.2793 0.2769,0.2793 v 0.45859 h -0.9629"
         style="fill:#25715e;fill-opacity:1;fill-rule:nonzero;stroke:none;stroke-width:0.1"
         id="path106"
         inkscape:connector-curvature="0" /><path
         d="M 16.757,7.78672 V 7.38789 L 16.5246,7.13672 16.1215,7.46016 v 0.32656 h 0.6355"
         style="fill:#25715e;fill-opacity:1;fill-rule:nonzero;stroke:none;stroke-width:0.1"
         id="path108"
         inkscape:connector-curvature="0" /><path
         d="M 16.3254,9.38945 16.757,8.91406 V 8.04844 h -0.3476 v 0.51484 l -0.3399,0.36797 v -3.9e-4 l -0.43,-0.2793 -0.277,0.2793 v 0.45859 h 0.9629"
         style="fill:#25715e;fill-opacity:1;fill-rule:nonzero;stroke:none;stroke-width:0.1"
         id="path110"
         inkscape:connector-curvature="0" /><path
         d="M 4.40859,10.7547 4.05078,10.3969 v 0 -0.97073 L 4.23477,8.91484 v -0.8664 h 0.34804 v 0.8664 L 4.7668,9.42617 v 0 0.97073 l -0.35821,0.3578"
         style="fill:#25715e;fill-opacity:1;fill-rule:nonzero;stroke:none;stroke-width:0.1"
         id="path112"
         inkscape:connector-curvature="0" /><path
         d="M 4.58281,7.26758 V 7.78672 H 4.23477 V 7.26758 L 4.05078,6.93047 4.40859,6.4875 4.7668,6.93047 4.58281,7.26758"
         style="fill:#25715e;fill-opacity:1;fill-rule:nonzero;stroke:none;stroke-width:0.1"
         id="path114"
         inkscape:connector-curvature="0" /><path
         d="M 4.84258,7.78672 V 7.38789 L 5.075,7.13672 5.47813,7.46016 V 7.78672 H 4.84258"
         style="fill:#25715e;fill-opacity:1;fill-rule:nonzero;stroke:none;stroke-width:0.1"
         id="path116"
         inkscape:connector-curvature="0" /><path
         d="M 5.27422,9.38945 4.84258,8.91406 V 8.04844 h 0.34765 v 0.51484 l 0.33985,0.36797 3.9e-4,-3.9e-4 0.42969,-0.2793 0.27695,0.2793 V 9.38945 H 5.27422"
         style="fill:#25715e;fill-opacity:1;fill-rule:nonzero;stroke:none;stroke-width:0.1"
         id="path118"
         inkscape:connector-curvature="0" /><path
         d="M 3.975,7.78672 V 7.38789 L 3.74258,7.13672 3.33906,7.46016 V 7.78672 H 3.975"
         style="fill:#25715e;fill-opacity:1;fill-rule:nonzero;stroke:none;stroke-width:0.1"
         id="path120"
         inkscape:connector-curvature="0" /><path
         d="M 3.54297,9.38945 3.975,8.91406 V 8.04844 H 3.62734 V 8.56328 L 3.2875,8.93125 3.28711,8.93086 2.85742,8.65156 2.58008,8.93086 v 0.45859 h 0.96289"
         style="fill:#25715e;fill-opacity:1;fill-rule:nonzero;stroke:none;stroke-width:0.1"
         id="path122"
         inkscape:connector-curvature="0" /></g></g></svg>