<?xml version="1.0" encoding="UTF-8" standalone="no"?>
<!-- Created with Inkscape (http://www.inkscape.org/) -->

<svg
   xmlns:dc="http://purl.org/dc/elements/1.1/"
   xmlns:cc="http://creativecommons.org/ns#"
   xmlns:rdf="http://www.w3.org/1999/02/22-rdf-syntax-ns#"
   xmlns:svg="http://www.w3.org/2000/svg"
   xmlns="http://www.w3.org/2000/svg"
   xmlns:sodipodi="http://sodipodi.sourceforge.net/DTD/sodipodi-0.dtd"
   xmlns:inkscape="http://www.inkscape.org/namespaces/inkscape"
   width="29.307741mm"
   height="6.4782577mm"
   viewBox="0 0 29.307741 6.4782577"
   version="1.1"
   id="svg8"
   inkscape:version="0.92.4 5da689c313, 2019-01-14"
   sodipodi:docname="2bot.svg">
  <defs
     id="defs2" />
  <sodipodi:namedview
     id="base"
     pagecolor="#ffffff"
     bordercolor="#666666"
     borderopacity="1.0"
     inkscape:pageopacity="0.0"
     inkscape:pageshadow="2"
     inkscape:zoom="3.2783389"
     inkscape:cx="232.10961"
     inkscape:cy="4.3422038"
     inkscape:document-units="mm"
     inkscape:current-layer="layer1"
     showgrid="false"
     inkscape:window-width="1853"
     inkscape:window-height="1145"
     inkscape:window-x="67"
     inkscape:window-y="27"
     inkscape:window-maximized="1" />
  <metadata
     id="metadata5">
    <rdf:RDF>
      <cc:Work
         rdf:about="">
        <dc:format>image/svg+xml</dc:format>
        <dc:type
           rdf:resource="http://purl.org/dc/dcmitype/StillImage" />
        <dc:title />
      </cc:Work>
    </rdf:RDF>
  </metadata>
  <g
     inkscape:label="Layer 1"
     inkscape:groupmode="layer"
     id="layer1"
     transform="translate(-71.254588,-120.48005)">
    <g
       id="g4071">
      <path
         inkscape:connector-curvature="0"
         id="path24"
         style="fill:#100f0d;fill-opacity:1;fill-rule:nonzero;stroke:none;stroke-width:0.03527778"
         d="m 96.764831,121.59832 c 0,-0.0927 -0.188666,-0.40968 -0.273121,-0.40968 -0.07786,0 -0.272732,0.32466 -0.272732,0.40968 0,0.0852 0.194874,0.40213 0.272732,0.40213 0.08446,0 0.273121,-0.30925 0.273121,-0.40213" />
      <path
         inkscape:connector-curvature="0"
         id="path26"
         style="fill:#100f0d;fill-opacity:1;fill-rule:nonzero;stroke:none;stroke-width:0.03527778"
         d="m 100.04358,125.09193 v -1.30666 c 0,-0.6022 -0.193461,-1.48154 -1.085459,-1.48154 -0.645478,0 -0.978535,0.61242 -0.964918,0.5176 v -0.45449 c 0,-0.0792 -0.04036,-0.12675 -0.08019,-0.12675 -0.153106,0 -0.266947,0.26003 -0.787542,0.41603 -0.03351,0.008 -0.128869,0.009 -0.13215,0.069 0,0.16619 0.522534,-0.21636 0.513856,0.43406 v 1.96427 c 0,0.3689 -0.180093,0.39729 -0.311856,0.4327 -0.0084,2.8e-4 -0.01475,-0.001 -0.02508,4.1e-4 -0.133668,-0.008 -0.4185,-0.0597 -0.4185,-0.34561 v -2.84415 c 0,-0.0792 -0.03997,-0.12636 -0.0798,-0.12636 -0.153105,0 -0.251777,0.27852 -0.67758,0.421 -0.03348,0.008 -0.09479,0.0146 -0.09479,0.0622 0,0.16634 0.382128,-0.15642 0.366007,0.43558 v 1.8696 c 0.01461,0.47831 -0.246416,0.52393 -0.390279,0.52393 -0.215794,-0.003 -0.162313,0.0244 -0.162313,0.0914 0.0067,0.0792 0.136561,0.0852 0.350415,0.0861 0.07345,0 0.255622,-0.0277 0.468524,-0.0277 0.273297,0 0.479284,0.031 0.619301,0.031 0.08022,0 0.296157,-0.0316 0.648512,-0.0316 0.386538,0 0.519641,0.0316 0.632389,0.0316 0.100189,0 0.214948,-0.0437 0.146897,-0.1108 -0.107492,-0.105 -0.585823,0.0161 -0.585823,-0.53082 v -1.8219 c -0.0067,-0.12693 0.226025,-0.61779 0.785636,-0.61779 0.538939,0 0.778581,0.59394 0.778581,0.99013 v 1.48112 c -0.0067,0.58139 -0.207539,0.3977 -0.286209,0.51539 -0.04424,0.0656 0.03306,0.0947 0.119627,0.0947 0.08692,0 0.226378,-0.0316 0.479249,-0.0316 0.326215,0 0.469095,0.0302 0.555625,0.0302 0.0666,0 0.18757,-0.051 0.11328,-0.11135 -0.16824,-0.13518 -0.49982,0.071 -0.49541,-0.52889" />
      <path
         inkscape:connector-curvature="0"
         id="path44"
         style="fill:#100f0d;fill-opacity:1;fill-rule:nonzero;stroke:none;stroke-width:0.03527778"
         d="m 83.902905,122.44128 c 0.366571,0 0.739881,0.40005 0.739881,0.84776 0,0.12001 -0.03983,0.15985 -0.133139,0.15985 h -1.313391 c 0,-0.43985 0.293123,-1.00761 0.706649,-1.00761 z m 1.306654,2.51946 c -0.146333,0 -0.366395,0.41603 -0.940083,0.41603 -0.406788,0 -1.07322,-0.39219 -1.07322,-1.71207 h 1.773661 c 0.153105,0 0.226553,0.008 0.226553,-0.1356 0,-0.31986 -0.360221,-1.27151 -1.180288,-1.27151 -0.833579,0 -1.307077,0.85548 -1.307077,1.87922 0,0.52793 0.346992,1.63959 1.347047,1.63959 0.600286,0 1.180147,-0.5756 1.180147,-0.75971 0,-0.0238 0,-0.0559 -0.02674,-0.0559" />
      <path
         inkscape:connector-curvature="0"
         id="path46"
         style="fill:#100f0d;fill-opacity:1;fill-rule:nonzero;stroke:none;stroke-width:0.03527778"
         d="m 75.663603,120.49342 c -0.105939,0 -0.350838,0.0269 -0.462739,0.0269 -0.229587,0 -0.420567,-0.0219 -0.650148,-0.0219 -0.01764,0 -0.117546,0.0125 -0.117962,0.0467 -0.0017,0.16274 0.547342,-0.0273 0.547342,0.66682 v 2.71833 c 0,0.80339 -0.252991,1.6473 -1.359419,1.6473 -0.7943,0 -1.224523,-0.49678 -1.224523,-1.58612 V 121.035 c 0,-0.4899 0.383646,-0.38449 0.391915,-0.49389 0.0077,-0.10502 -0.339828,-0.0427 -0.369316,-0.0427 -0.182316,0 -0.310886,0.0189 -0.499262,0.0189 -0.158888,0 -0.351401,-0.0238 -0.504501,-0.0238 -0.02922,0 -0.137804,-0.006 -0.155856,0.038 -0.05981,0.14523 0.490304,0.0681 0.490304,0.46951 v 2.80664 c 0,1.04855 0.294488,2.07477 1.841888,2.049 1.835281,-0.0306 1.800673,-1.68093 1.800673,-2.01441 v -2.6235 c 0,-0.62607 0.306635,-0.56681 0.365196,-0.6634 0.02589,-0.0429 -0.0641,-0.0619 -0.09359,-0.0619" />
      <path
         inkscape:connector-curvature="0"
         id="path48"
         style="fill:#100f0d;fill-opacity:1;fill-rule:nonzero;stroke:none;stroke-width:0.03527778"
         d="m 83.004168,122.41895 c 0.04463,-0.0521 0.05842,-0.1367 -0.147743,-0.11864 -0.113277,0 -0.198861,0.02 -0.312526,0.02 -0.146368,0 -0.174061,-0.005 -0.314078,-0.0103 -0.17459,-0.006 -0.222109,0.0132 -0.211914,0.0657 0.03002,0.15561 0.397546,0.003 0.348086,0.46221 -0.0423,0.38559 -0.166899,0.71699 -0.293652,1.04607 l -0.446793,1.18663 -0.653309,-1.9775 c -0.08019,-0.24694 -0.113277,-0.37909 -0.113277,-0.40333 0,-0.24751 0.299049,-0.19061 0.365195,-0.29464 0.04216,-0.0661 -0.04537,-0.10114 -0.138641,-0.10114 -0.07966,0 -0.171556,0.0277 -0.418113,0.0336 -0.204611,0.005 -0.349461,0.004 -0.438891,-0.0122 -0.22987,-0.0418 -0.211384,0.0852 -0.131198,0.12537 0.0787,0.04 0.117123,0.003 0.234809,0.3477 l 1.006687,2.84261 c 0.02039,0.0573 0.04671,0.19734 0.133667,0.19734 0.100154,0 0.100154,-0.0987 0.226554,-0.43643 0,0 0.962413,-2.69199 1.028559,-2.78971 0.130211,-0.19153 0.229024,-0.12841 0.276578,-0.18327" />
      <path
         inkscape:connector-curvature="0"
         id="path50"
         style="fill:#100f0d;fill-opacity:1;fill-rule:nonzero;stroke:none;stroke-width:0.03527778"
         d="m 86.720435,122.28955 c -0.272697,0 -0.463267,0.32907 -0.599863,0.55619 h -0.01266 v -0.4935 c 0,-0.0782 -0.03884,-0.12538 -0.07772,-0.12538 -0.104598,0 -0.184785,0.21001 -0.73794,0.34078 -0.03267,0.008 -0.12499,0.0258 -0.12499,0.0729 0,0.16482 0.467713,-0.0496 0.467149,0.49488 v 2.07365 c 0,0.32095 -0.331012,0.2898 -0.331012,0.45462 0,0.0466 0.01944,0.0699 0.07154,0.0699 0.04505,0 0.162313,-0.031 0.596406,-0.031 0.363537,0 0.519112,0.031 0.610059,0.031 0.07098,0 0.103505,-0.0154 0.103505,-0.086 0,-0.25081 -0.577004,0.1254 -0.577004,-0.60276 v -1.76842 c 0,-0.10157 0.155575,-0.46179 0.421393,-0.46179 0.233469,0 0.262538,0.17985 0.385586,0.17985 0.07772,0 0.233292,-0.23485 0.233292,-0.35239 0,-0.14828 -0.291712,-0.3525 -0.427743,-0.3525" />
      <path
         inkscape:connector-curvature="0"
         id="path52"
         style="fill:#100f0d;fill-opacity:1;fill-rule:nonzero;stroke:none;stroke-width:0.03527778"
         d="m 95.087337,122.31534 c -0.06957,0 -0.247474,0.0107 -0.407353,0.0107 -0.19498,0 -0.290759,-0.0234 -0.373838,-0.0234 -0.125413,0 -0.245992,0.001 -0.224614,0.0827 0.02438,0.0923 0.445382,0.0594 0.445382,0.51774 0,0.0588 0,0.13557 -0.08368,0.4404 l -0.535622,1.70478 -0.744291,-2.09463 c 0,0 -0.03499,-0.0675 -0.03499,-0.20366 0,-0.33888 0.396169,-0.30194 0.411762,-0.36216 0.01252,-0.0496 -0.05401,-0.10114 -0.158468,-0.10114 -0.111372,0 -0.275202,9.5e-4 -0.521582,9.5e-4 -0.0412,0 -0.07292,7e-4 -0.109996,10e-4 1.41e-4,-5.7e-4 4.23e-4,-0.002 5.64e-4,-0.002 h -0.300425 c -0.0044,0 -0.0067,0.002 -0.01171,0.002 h -0.720831 c 0,-0.6193 0.0069,-0.78109 -0.08943,-0.78109 -0.09236,0 -0.07828,0.0252 -0.161784,0.30082 -0.139065,0.46083 -0.646607,0.66311 -0.808497,0.76316 -0.0393,0.0194 -0.03736,0.0267 -0.03888,0.0506 -0.0033,0.0583 0.193076,0.0346 0.596018,0.0448 l -0.0019,2.07368 c 0,0.88567 0.421393,1.03587 0.737376,1.03587 0.481225,0 0.824901,-0.34175 0.844868,-0.46274 0,-0.0686 -0.0088,-0.0754 -0.04766,-0.0696 -0.0671,0.0327 -0.219675,0.19788 -0.584306,0.19788 -0.274638,0 -0.43367,-0.1633 -0.447146,-0.5158 v -2.26618 c 0,0 0.64449,-0.002 0.82296,-0.002 0.0098,0.0153 0.01944,0.0311 0.02575,0.0499 l 0.768949,2.17191 c 0.06269,0.17791 0.09963,0.23579 0.175014,0.55026 0.0496,0.20505 0.03115,0.38791 0.03115,0.38791 -0.07444,0.3266 -0.275202,0.51374 -0.58099,1.11608 -0.02963,0.0583 0.441396,-0.006 0.46482,-0.0131 0.03789,-0.0117 0.03348,-0.0225 0.07923,-0.10804 l 0.339831,-1.01258 0.948372,-2.91401 c 0.138889,-0.50903 0.359093,-0.41618 0.392713,-0.4856 0.01986,-0.0429 -0.01323,-0.0852 -0.09673,-0.0852" />
      <path
         inkscape:connector-curvature="0"
         id="path54"
         style="fill:#100f0d;fill-opacity:1;fill-rule:nonzero;stroke:none;stroke-width:0.03527778"
         d="m 93.859388,125.75105 -0.0164,0.0491 -0.004,0.0123 z" />
      <path
         inkscape:connector-curvature="0"
         id="path56"
         style="fill:#100f0d;fill-opacity:1;fill-rule:nonzero;stroke:none;stroke-width:0.03527778"
         d="m 90.068261,121.18864 c -0.07828,0 -0.273261,0.32466 -0.273261,0.40968 0,0.0852 0.19498,0.40213 0.273261,0.40213 0.08445,0 0.272556,-0.30925 0.272556,-0.40213 0,-0.0927 -0.188101,-0.40968 -0.272556,-0.40968" />
      <path
         inkscape:connector-curvature="0"
         id="path58"
         style="fill:#100f0d;fill-opacity:1;fill-rule:nonzero;stroke:none;stroke-width:0.03527778"
         d="m 90.746265,125.5566 c -0.133138,-0.008 -0.417971,-0.0597 -0.417971,-0.34561 v -2.84415 c 0,-0.0792 -0.04039,-0.12636 -0.08022,-0.12636 -0.153211,0 -0.251354,0.27852 -0.677686,0.421 -0.03295,0.008 -0.09426,0.0146 -0.09426,0.0622 0,0.16634 0.382129,-0.15642 0.366007,0.43558 v 1.8696 c 0.01461,0.47831 -0.246416,0.52393 -0.390807,0.52393 -0.21583,-0.003 -0.161925,0.0244 -0.161925,0.0914 0.0063,0.0792 0.136701,0.0852 0.350555,0.0861 0.07292,0 0.255235,-0.0277 0.468524,-0.0277 0.272733,0 0.479284,0.031 0.618878,0.031 0.08657,0 0.194451,-0.20657 0.01891,-0.17695" />
      <path
         inkscape:connector-curvature="0"
         id="path60"
         style="fill:#100f0d;fill-opacity:1;fill-rule:nonzero;stroke:none;stroke-width:0.03527778"
         d="m 79.543065,122.00045 c 0.08449,0 0.273262,-0.30925 0.273262,-0.40213 0,-0.0927 -0.188772,-0.40968 -0.273262,-0.40968 -0.07786,0 -0.272697,0.32466 -0.272697,0.40968 0,0.0852 0.194839,0.40213 0.272697,0.40213" />
      <path
         inkscape:connector-curvature="0"
         id="path62"
         style="fill:#100f0d;fill-opacity:1;fill-rule:nonzero;stroke:none;stroke-width:0.03527778"
         d="m 80.221774,125.5566 c -0.133702,-0.008 -0.418535,-0.0597 -0.418535,-0.34561 v -2.84415 c 0,-0.0792 -0.03997,-0.12636 -0.0799,-0.12636 -0.153106,0 -0.251778,0.27852 -0.677581,0.421 -0.03351,0.008 -0.09483,0.0146 -0.09483,0.0622 0,0.16634 0.381987,-0.15642 0.366007,0.43558 v 1.8696 c 0.01461,0.47831 -0.24638,0.52393 -0.390243,0.52393 -0.01792,-2.8e-4 -0.03143,1.4e-4 -0.0459,2.7e-4 -0.139453,-0.0248 -0.270933,-0.082 -0.268181,-0.46109 v -1.30666 c 0,-0.6022 -0.193464,-1.48154 -1.085074,-1.48154 -0.645725,0 -0.978535,0.61242 -0.965165,0.5176 v -0.45449 c 0,-0.0792 -0.04011,-0.12675 -0.07994,-0.12675 -0.15307,0 -0.267193,0.26003 -0.787964,0.41603 -0.0332,0.008 -0.128693,0.009 -0.132151,0.069 0,0.16619 0.522994,-0.21636 0.513892,0.43406 v 1.96427 c 0,0.51539 -0.346463,0.39081 -0.424992,0.52558 -0.04025,0.0685 0.06558,0.0845 0.152118,0.0845 0.07994,0 0.213184,-0.0316 0.565821,-0.0316 0.38615,0 0.519394,0.0316 0.632389,0.0316 0.09991,0 0.214559,-0.0437 0.14665,-0.1108 -0.107245,-0.105 -0.585823,0.0161 -0.585823,-0.53082 v -1.8219 c -0.0069,-0.12693 0.225989,-0.61779 0.785495,-0.61779 0.53908,0 0.778722,0.59394 0.778722,0.99013 v 1.48112 c -0.0069,0.58139 -0.207681,0.3977 -0.28635,0.51539 -0.04424,0.0656 0.03305,0.0947 0.119451,0.0947 0.0871,0 0.226553,-0.0316 0.479283,-0.0316 0.32632,0 0.46923,0.0302 0.555625,0.0302 0.0071,0 0.01587,-0.003 0.02371,-0.004 0.03087,6.9e-4 0.06064,0.002 0.09649,0.002 0.07345,0 0.255623,-0.0277 0.468524,-0.0277 0.273403,0 0.479425,0.031 0.619407,0.031 0.08657,0 0.194451,-0.20657 0.01905,-0.17695" />
      <path
         inkscape:connector-curvature="0"
         id="path64"
         style="fill:#100f0d;fill-opacity:1;fill-rule:nonzero;stroke:none;stroke-width:0.03527778"
         d="m 88.631785,123.7839 c -0.130774,-0.0627 -0.326742,-0.17501 -0.423474,-0.22752 -0.417548,-0.22889 -0.582366,-0.37868 -0.593937,-0.59214 -0.01944,-0.37084 0.295028,-0.56237 0.567761,-0.53566 0.651827,-0.0116 0.739316,0.71893 0.806027,0.71893 0.09962,0 0.07331,-0.0957 0.07331,-0.31101 0,-0.0559 0.0067,-0.32713 -0.03348,-0.39081 -0.0798,-0.11963 -0.54102,-0.18962 -0.654297,-0.18962 -0.02826,0 -0.135184,-0.003 -0.15367,-0.004 -0.03154,-9.5e-4 -0.0725,0.004 -0.0725,0.004 -0.464643,-0.008 -0.898736,0.28635 -0.885084,0.90855 0.01266,0.56622 0.679097,0.88951 1.038754,1.10531 0.26596,0.15117 0.578909,0.29559 0.575063,0.6587 -0.0048,0.41466 -0.326178,0.6893 -0.671265,0.66642 -0.809308,-0.0136 -0.6985,-1.02912 -0.844444,-1.02912 -0.09963,0 -0.07923,0.25522 -0.07966,0.39081 -9.52e-4,0.32136 -0.01404,0.5854 0.02427,0.63252 0.0121,0.0145 0.05154,0.007 0.129786,0.007 0.159456,0 0.354436,0.17639 0.820068,0.17639 0.521617,0.008 0.989718,-0.47543 0.989718,-1.07377 0,-0.36794 -0.107492,-0.6022 -0.612952,-0.91529" />
    </g>
  </g>
</svg>
