<?xml version="1.0" encoding="UTF-8" standalone="no"?>
<!-- Created with Inkscape (http://www.inkscape.org/) -->

<svg
   xmlns:dc="http://purl.org/dc/elements/1.1/"
   xmlns:cc="http://creativecommons.org/ns#"
   xmlns:rdf="http://www.w3.org/1999/02/22-rdf-syntax-ns#"
   xmlns:svg="http://www.w3.org/2000/svg"
   xmlns="http://www.w3.org/2000/svg"
   xmlns:sodipodi="http://sodipodi.sourceforge.net/DTD/sodipodi-0.dtd"
   xmlns:inkscape="http://www.inkscape.org/namespaces/inkscape"
   width="47.989796mm"
   height="9.795495mm"
   viewBox="0 0 47.989796 9.795495"
   version="1.1"
   id="svg8"
   inkscape:version="0.92.4 5da689c313, 2019-01-14"
   sodipodi:docname="2top.svg">
  <defs
     id="defs2" />
  <sodipodi:namedview
     id="base"
     pagecolor="#ffffff"
     bordercolor="#666666"
     borderopacity="1.0"
     inkscape:pageopacity="0.0"
     inkscape:pageshadow="2"
     inkscape:zoom="3.2783389"
     inkscape:cx="232.10962"
     inkscape:cy="-21.851423"
     inkscape:document-units="mm"
     inkscape:current-layer="layer1"
     showgrid="false"
     inkscape:window-width="1853"
     inkscape:window-height="1145"
     inkscape:window-x="67"
     inkscape:window-y="27"
     inkscape:window-maximized="1" />
  <metadata
     id="metadata5">
    <rdf:RDF>
      <cc:Work
         rdf:about="">
        <dc:format>image/svg+xml</dc:format>
        <dc:type
           rdf:resource="http://purl.org/dc/dcmitype/StillImage" />
        <dc:title />
      </cc:Work>
    </rdf:RDF>
  </metadata>
  <g
     inkscape:label="Layer 1"
     inkscape:groupmode="layer"
     id="layer1"
     transform="translate(-71.254586,-110.23242)">
    <g
       id="g4107">
      <path
         inkscape:connector-curvature="0"
         id="path14"
         style="fill:#100f0d;fill-opacity:1;fill-rule:nonzero;stroke:none;stroke-width:0.03527778"
         d="m 80.108356,111.1532 c 0.123473,0.1385 0.361174,0.6029 0.418077,0.77103 l 2.169301,6.23341 c 0.03969,0.0932 0.04949,0.27436 0.177906,0.27436 0.09952,-8.2e-4 0.118816,-0.20945 0.153388,-0.28868 l 1.139367,-3.12815 1.111814,2.97243 c 0.04738,0.1185 0.111478,0.44358 0.227895,0.4444 0.09606,0 0.13081,-0.15364 0.18041,-0.30248 l 2.147923,-6.14606 c 0.180552,-0.49399 0.389714,-1.01765 0.731767,-1.07692 0.133103,-0.0193 0.199672,-0.0689 0.199672,-0.0689 0,-0.0889 -0.01887,-0.10887 -0.142628,-0.10887 -0.237596,0 -0.380188,0.04 -0.617784,0.04 -0.256434,0 -0.456142,-0.0296 -0.674688,-0.0296 -0.123472,0 -0.113947,0.0393 -0.113947,0.10887 0,0.0785 0.237419,0.0289 0.370664,0.32522 0.07595,0.15777 0.04741,0.49403 -0.02865,0.6911 l -1.824531,5.00708 -0.779287,-2.22141 -0.304129,-0.81026 c 0,0 -0.04738,0.02 0.171026,-0.65183 l 0.427743,-1.28365 c 0.209057,-0.63183 0.417548,-0.96322 0.684178,-0.96806 0.335703,-0.005 0.335139,-0.2074 0.07856,-0.2074 -0.256575,0 -0.411198,0.02 -0.639268,0.02 -0.237561,0 -0.361033,-0.02 -0.617785,-0.02 -0.09479,0 -0.19939,0.0296 -0.1899,0.10887 0.0095,0.0792 0.151871,0.0496 0.256469,0.10816 0.171168,0.0896 0.285115,0.45477 0.161502,0.83993 l -0.50352,1.60955 -0.57023,-1.50068 c -0.114123,-0.28663 -0.264583,-0.91641 0.01157,-0.9736 0.266242,-0.0544 0.229976,-0.19223 0.06847,-0.19223 -0.313513,0 -0.479142,0.04 -0.783413,0.04 -0.33267,0 -0.579614,-0.04 -0.893092,-0.04 -0.06671,0 -0.190183,0.0103 -0.152154,0.1385 0.01902,0.0785 0.180517,0.0496 0.275626,0.10887 0.380047,0.24666 0.456106,0.56293 0.589103,0.91846 l 0.836331,2.35987 c 0.152118,0.42446 0.161643,0.26667 0.03803,0.63253 l -0.731732,2.00438 -1.796274,-5.14491 c -0.142345,-0.38587 -0.21844,-0.6525 0.09507,-0.80067 0.133138,-0.0689 0.172544,-0.082 0.190183,-0.10816 0.01764,-0.0262 0.03404,-0.11574 -0.161502,-0.10887 -0.323039,0.0117 -0.522852,0.04 -0.845855,0.04 -0.342018,0 -0.579614,-0.04 -0.893234,-0.04 -0.104598,0 -0.123472,0.0496 -0.123472,0.12817 0,0.1192 0.256434,0.04 0.475015,0.29626" />
      <path
         inkscape:connector-curvature="0"
         id="path16"
         style="fill:#100f0d;fill-opacity:1;fill-rule:nonzero;stroke:none;stroke-width:0.03527778"
         d="m 114.91401,114.64859 v 2.78434 c 0,0.73035 -0.49106,0.55397 -0.60254,0.74482 -0.0568,0.0971 0.0931,0.11991 0.2159,0.11991 0.11324,0 0.30198,-0.0448 0.80186,-0.0448 0.54751,0 0.73625,0.0448 0.89641,0.0448 0.14147,0 0.3041,-0.0622 0.20743,-0.15709 -0.15169,-0.14884 -0.83008,0.0227 -0.83008,-0.75241 v -2.58247 c -0.01,-0.17981 0.32067,-0.87574 1.11337,-0.87574 0.76411,0 1.10384,0.84198 1.10384,1.40353 v 2.09945 c -0.009,0.82405 -0.29387,0.56363 -0.4057,0.73035 -0.0628,0.093 0.0473,0.13438 0.16969,0.13438 0.12312,0 0.32103,-0.0448 0.67945,-0.0448 0.46249,0 0.66463,0.0427 0.7874,0.0427 0.0942,0 0.26564,-0.0724 0.16016,-0.15777 -0.23812,-0.19155 -0.70802,0.10058 -0.70203,-0.74965 v -1.85208 c 0,-0.85372 -0.27375,-2.10016 -1.53811,-2.10016 -0.9151,0 -1.38677,0.86819 -1.36807,0.73381 v -0.64424 c 0,-0.11229 -0.0568,-0.17981 -0.11324,-0.17981 -0.21696,0 -0.37853,0.36862 -1.11654,0.58977 -0.0473,0.011 -0.18274,0.0124 -0.18768,0.0979 0,0.23566 0.74118,-0.30663 0.72848,0.61528" />
      <path
         inkscape:connector-curvature="0"
         id="path18"
         style="fill:#100f0d;fill-opacity:1;fill-rule:nonzero;stroke:none;stroke-width:0.03527778"
         d="m 89.574655,117.11324 c 0,0.60011 -0.609106,0.91708 -0.948655,0.91708 -0.500098,0 -0.850512,-0.32522 -0.850512,-0.97014 0,-0.99635 1.195176,-1.17753 1.799167,-1.336 z m -2.320784,-1.93548 c 0.09123,0.10322 0.458505,-0.29351 0.480554,-0.31485 0.02215,-0.0207 0.02699,-0.0469 0.02699,-0.0469 -0.0022,-0.47265 0.353342,-1.07484 0.863071,-1.12515 0.582224,-0.0579 0.873125,0.37758 0.873125,0.96668 v 0.76275 c -2.207754,0.44097 -2.527477,1.17549 -2.527477,1.77493 0,0.80338 0.565009,1.16307 1.178243,1.16307 0.528461,0 1.047291,-0.24874 1.443637,-0.65596 0.122626,0.37346 0.368195,0.59874 0.736001,0.58759 0.127599,-0.003 0.146755,0.0318 0.534423,-0.13561 0.134055,-0.035 0.126894,-0.0331 0.280564,-0.005 0.203235,0.0713 0.480907,0.20796 0.969151,0.20796 0.73974,0.011 1.402997,-0.67387 1.402997,-1.52135 0,-0.52229 -0.152153,-0.85369 -0.868715,-1.29812 -0.185349,-0.0889 -0.46288,-0.24736 -0.599722,-0.32244 -0.591997,-0.32385 -0.825606,-0.53608 -0.842257,-0.83925 -0.02745,-0.52501 0.418218,-0.79718 0.804615,-0.75929 0.924278,-0.0158 1.048139,1.01974 1.142824,1.01974 0.141252,0 0.103611,-0.13571 0.103611,-0.44097 0,-0.0792 0.0095,-0.46369 -0.04752,-0.55397 -0.113136,-0.17018 -0.76701,-0.26941 -0.92703,-0.26941 -0.04036,0 -0.191805,-0.005 -0.21784,-0.006 -0.0448,-10e-4 -0.103082,0.006 -0.103082,0.006 -0.658283,-0.0103 -1.27388,0.40654 -1.254442,1.28778 0.0182,0.80341 0.962413,1.2616 1.472177,1.56682 0.377013,0.21499 0.82102,0.41963 0.815375,0.93434 -0.0072,0.58702 -0.462209,0.97634 -0.951689,0.94396 -1.146915,-0.0193 -0.989682,-1.458 -1.196657,-1.458 -0.141252,0 -0.112466,0.36174 -0.113171,0.55401 -5.29e-4,0.18616 -0.004,0.35718 -0.0041,0.50076 -0.02314,0.13201 -0.07578,0.2533 -0.198296,0.2606 -0.451591,0.0268 -0.342724,-0.69109 -0.342724,-1.07558 v -2.34333 c -0.02191,-0.71727 -0.56194,-1.18512 -1.382289,-1.18512 -1.126702,0 -1.932164,1.38768 -1.550317,1.81899" />
      <path
         inkscape:connector-curvature="0"
         id="path20"
         style="fill:#100f0d;fill-opacity:1;fill-rule:nonzero;stroke:none;stroke-width:0.03527778"
         d="m 98.950959,113.00599 c 0.119874,0 0.386821,-0.43822 0.386821,-0.56984 0,-0.13159 -0.266947,-0.58082 -0.386821,-0.58082 -0.110384,0 -0.386679,0.46024 -0.386679,0.58082 0,0.12058 0.276295,0.56984 0.386679,0.56984" />
      <path
         inkscape:connector-curvature="0"
         id="path22"
         style="fill:#100f0d;fill-opacity:1;fill-rule:nonzero;stroke:none;stroke-width:0.03527778"
         d="m 105.58082,117.94417 c 0.0765,-0.005 0.0977,0.0276 0.96142,0.0627 0.89324,0.0207 1.21462,0.28247 1.26965,0.51248 0.0967,0.40802 -0.19367,1.28295 -1.47574,1.19821 -0.80673,-0.0523 -1.04277,-0.43604 -1.10536,-0.52504 -0.30067,-0.42566 -0.0526,-1.22425 0.35003,-1.24838 z m 0.69688,-4.39247 c 0.76866,0 1.07558,0.78821 1.07558,1.48001 0,0.70348 -0.32068,1.24781 -1.0378,1.24781 -0.75809,0 -1.0112,-0.73173 -1.0112,-1.42353 0,-0.71381 0.21551,-1.30429 0.97342,-1.30429 z m 5.99083,0.13642 c 1.12289,0 1.52859,1.19821 1.52859,2.37092 0,1.41178 -0.50024,1.97266 -1.29258,1.97266 -1.10419,0 -1.53811,-1.3691 -1.53811,-2.48529 0,-0.96738 0.37747,-1.85829 1.3021,-1.85829 z m -10.20819,4.45174 c -0.15197,-0.14884 -0.83054,0.0228 -0.83054,-0.7524 v -2.58244 c -0.009,-0.17985 0.32096,-0.87574 1.11361,-0.87574 0.76426,0 1.10395,0.84198 1.10395,1.40353 v 2.09945 c 0,0.73035 -0.29394,0.5636 -0.4057,0.73035 -0.0627,0.093 0.0473,0.13434 0.16976,0.13434 0.1228,0 0.32082,-0.0448 0.67938,-0.0448 0.33983,0 0.55647,0.024 0.69646,0.0369 -0.10404,0.15184 -0.17653,0.32671 -0.18673,0.51068 -0.0504,0.91295 1.06881,1.24037 2.0085,1.22784 1.865,-0.0248 2.39346,-1.32016 2.00717,-2.00561 -0.39829,-0.70831 -1.2513,-0.67938 -2.06947,-0.67659 -1.53169,0.005 -1.2416,-0.94329 -0.61803,-0.90816 0.14387,0.008 0.0751,0.0489 0.57189,0.0489 0.88618,0 1.73567,-0.60219 1.71027,-1.59438 -0.002,-0.0841 0.0191,-0.37345 -0.19403,-0.77999 0.41451,0.002 0.24977,-0.002 0.87842,-8.1e-4 l -0.002,2.77894 c 0,1.25539 0.59725,1.46833 1.04528,1.46833 0.63606,0 1.0982,-0.41882 1.18075,-0.61461 0.37394,0.40044 0.8957,0.61461 1.50071,0.61461 1.16064,0 2.038,-1.07005 2.038,-2.47015 0,-2.11737 -1.33033,-2.53834 -2.04752,-2.53834 -1.18886,0 -2.10397,1.19546 -2.10397,2.59552 0,0.71106 0.19191,1.27868 0.51753,1.68561 -0.11289,0.0766 -0.33514,0.2533 -0.78352,0.2533 -0.38947,0 -0.6149,-0.2315 -0.6343,-0.73106 v -3.04338 c 0,0 1.16628,-0.003 1.23155,-0.003 0.0804,0 0.23671,-0.52642 0.24236,-0.55326 0.0134,-0.0661 0.036,-0.11921 0.0434,-0.16676 0.0155,-0.10061 -0.0624,-0.10887 -0.13335,-0.003 -0.0571,0.0544 -0.11677,0.19981 -0.36019,0.19981 h -1.02199 c 0,-0.87782 0.0102,-1.27607 -0.1263,-1.27607 -0.13088,0 -0.11077,0.0358 -0.2293,0.42651 -0.15875,0.5249 -0.65088,0.81097 -0.9585,0.97758 -0.13794,0.0313 -0.29457,0.0427 -0.4692,0.004 -0.2674,-0.0586 -0.58349,-0.38308 -1.39185,-0.38308 -0.86677,0 -1.62496,0.70831 -1.62496,1.65845 0,0.51195 0.22641,1.0046 0.62576,1.26573 -0.074,0.0441 -0.55729,0.45131 -0.49887,0.93017 0,0 -0.01,0.49611 0.37994,0.66354 -0.12114,0.0481 -0.24239,0.12897 -0.35059,0.23082 -0.25463,-0.0936 -0.62755,-0.0229 -0.62755,-0.69384 v -1.85279 c 0,-0.85369 -0.27369,-2.09942 -1.53801,-2.09942 -0.91517,0 -1.38701,0.86815 -1.36828,0.73311 v -0.64354 c 0,-0.11232 -0.0563,-0.17985 -0.11314,-0.17985 -0.21703,0 -0.26402,0.36037 -1.05858,0.56501 -0.0473,0.0117 -0.153527,0.0365 -0.15836,0.12263 0,0.23565 0.63736,-0.25767 0.64149,0.61531 v 2.78434 c 0,0.59873 -0.47516,0.60011 -0.559363,0.6084 -0.03348,0 -0.07094,0.001 -0.112431,0.002 -0.200765,-0.0193 -0.549839,-0.10802 -0.549839,-0.48574 v -4.03147 c 0,-0.11229 -0.05662,-0.17914 -0.113418,-0.17914 -0.216888,0 -0.356482,0.39483 -0.960473,0.59669 -0.04713,0.011 -0.13395,0.0207 -0.13395,0.0882 0,0.23566 0.541691,-0.22186 0.518972,0.61736 v 2.64997 c 0.01954,0.64741 -0.315595,0.73465 -0.523664,0.74125 -0.251495,-0.0303 -0.443336,-0.13257 -0.443336,-0.51661 v -1.87483 c 0,-0.96601 -0.367911,-2.21245 -1.575646,-2.21245 -0.537986,0 -1.000302,0.2963 -1.358724,0.70005 v -3.22735 c 0,-0.11232 -0.0569,-0.17639 -0.113136,-0.17985 -0.145238,-0.009 -0.389043,0.43477 -1.077771,0.59186 -0.04727,0.011 -0.224473,0.0255 -0.224473,0.093 0,0.23565 0.714657,-0.11162 0.726476,0.61736 v 5.50319 c 0,0.55055 -0.471276,0.47544 -0.556719,0.65112 -0.01461,0.0765 0.02826,0.11233 0.0944,0.11233 0.150883,0 0.566103,-0.0441 0.85852,-0.0441 0.2927,0 0.76454,0.0441 0.962555,0.0441 0.113418,0 0.160408,-0.022 0.160408,-0.15709 -0.09853,-0.1917 -0.830263,0.10128 -0.830263,-0.86487 v -2.3687 c 0,-0.57259 0.67938,-1.01081 1.103948,-1.01081 0.330164,0 1.141694,0.25837 1.141694,1.65089 v 2.05465 c 0,0.40446 -0.429401,0.44648 -0.462315,0.57327 0,0.0894 0.05648,0.12266 0.150883,0.12266 0.103893,0 0.405695,-0.0441 0.773783,-0.0441 0.20574,0 0.391478,0.0106 0.54804,0.0198 0.08516,0.0163 0.206975,0.0188 0.358564,0.0194 0.10361,0 0.362267,-0.0393 0.66421,-0.0393 0.298203,0 0.538938,0.0258 0.724993,0.0378 0.03595,0.002 0.07246,0.004 0.10982,0.005 0.01351,2.8e-4 0.02992,0.002 0.04272,0.002 6.71e-4,0 0.0014,-7.1e-4 0.0022,-7.1e-4 0.115215,0.002 0.222145,0 0.266385,0 0.11328,0 0.30208,-0.0448 0.80204,-0.0448 0.54719,0 0.736,0.0448 0.89641,0.0448 0.1415,0 0.30427,-0.0627 0.20764,-0.15709" />
      <path
         inkscape:connector-curvature="0"
         id="path66"
         style="fill:#25715e;fill-opacity:1;fill-rule:nonzero;stroke:none;stroke-width:0.03527778"
         d="m 75.064868,110.67378 v 0 c 0,0 -1.41e-4,0 -2.82e-4,0 h -2.82e-4 v 0 c -0.03253,4.2e-4 -1.605132,0.015 -3.809718,-0.44136 v 6.34308 0.0131 c 0.0014,0.10047 0.0026,0.17131 0.0026,0.1724 v 0.005 l 2.76e-4,0.005 c 0.01433,0.29517 0.10225,0.53026 0.277537,0.73078 0.115481,0.12414 0.276573,0.25396 0.501194,0.37938 0.06174,0.0339 0.128432,0.0679 0.200364,0.10237 0.05443,0.0255 0.111897,0.0507 0.172395,0.0755 v 0 l 4.13e-4,1.4e-4 c 0.04754,0.0194 0.20078,0.0878 0.252042,0.10665 l 2.403161,0.9095 v 0 0 0 0 l 2.403158,-0.9095 c 0.05126,-0.0189 0.204505,-0.0872 0.25206,-0.10665 l 3.88e-4,-1.4e-4 v 0 c 0.0605,-0.0248 0.117969,-0.05 0.172402,-0.0755 0.07193,-0.0344 0.138642,-0.0685 0.200519,-0.10237 0.224473,-0.12542 0.385551,-0.25524 0.50105,-0.37938 0.175296,-0.20052 0.263208,-0.43561 0.277531,-0.73078 l 2.82e-4,-0.005 v -0.005 c 1.41e-4,-10e-4 0.0012,-0.0719 0.0026,-0.1724 v -0.0131 -6.34308 c -2.204579,0.45638 -3.777191,0.44178 -3.809718,0.44136" />
      <path
         inkscape:connector-curvature="0"
         id="path68"
         style="fill:#e0bfa2;fill-opacity:1;fill-rule:nonzero;stroke:none;stroke-width:0.03527778"
         d="m 75.064868,111.0515 v 0 c 0,0 -1.41e-4,0 -2.82e-4,0 h -2.82e-4 v 0 c -0.02963,2.8e-4 -1.467467,0.0136 -3.482985,-0.40362 v 1.62525 c 2.015518,0.41741 3.453352,0.40404 3.482985,0.40365 v 0 h 2.82e-4 c 1.41e-4,0 2.82e-4,0 2.82e-4,0 v 0 c 0.02963,3.9e-4 1.46745,0.0138 3.482976,-0.40365 v -1.62525 c -2.015526,0.41727 -3.453342,0.4039 -3.482976,0.40362" />
      <path
         inkscape:connector-curvature="0"
         id="path70"
         style="fill:#a31c21;fill-opacity:1;fill-rule:nonzero;stroke:none;stroke-width:0.03527778"
         d="m 75.064868,112.67678 v 0 c 0,0 -1.41e-4,0 -2.82e-4,0 h -2.82e-4 v 0 c -0.02963,3.9e-4 -1.467467,0.0138 -3.482985,-0.40365 v 1.98356 1.62525 c 2.015518,0.41727 3.453352,0.4039 3.482985,0.40365 v 0 h 2.82e-4 c 1.41e-4,0 2.82e-4,0 2.82e-4,0 v 0 c 0.02963,2.5e-4 1.46745,0.0136 3.482976,-0.40365 v -1.62525 -1.98356 c -2.015526,0.41741 -3.453342,0.40404 -3.482976,0.40365" />
      <path
         inkscape:connector-curvature="0"
         id="path72"
         style="fill:#e0bfa2;fill-opacity:1;fill-rule:nonzero;stroke:none;stroke-width:0.03527778"
         d="m 71.583662,116.62154 2.75e-4,0.005 c 0.01309,0.26967 0.09343,0.48465 0.253837,0.66792 0.105417,0.1137 0.25273,0.23234 0.458057,0.34685 0.0565,0.031 0.117411,0.0622 0.183278,0.0937 0.04975,0.0233 0.102253,0.0463 0.15765,0.069 v 0 l 2.75e-4,1.4e-4 c 0.04355,0.0177 0.183554,0.0802 0.23041,0.0974 l 2.197142,0.83164 v 0 0 0 0 l 2.197136,-0.83164 c 0.04685,-0.0172 0.186866,-0.0797 0.230434,-0.0974 l 2.47e-4,-1.4e-4 v 0 c 0.05542,-0.0228 0.107915,-0.0457 0.157656,-0.069 0.06586,-0.0316 0.126789,-0.0627 0.183269,-0.0937 0.205351,-0.11451 0.352636,-0.23315 0.458223,-0.34685 0.160267,-0.18327 0.240594,-0.39825 0.253682,-0.66792 l 2.82e-4,-0.005 v -0.005 c 0,-9.6e-4 0.0011,-0.0657 0.0023,-0.15748 v -0.012 -0.56529 c -2.015526,0.41727 -3.453342,0.4039 -3.482976,0.40365 v 0 c 0,0 -1.41e-4,0 -2.82e-4,0 h -2.82e-4 v 0 c -0.02963,2.5e-4 -1.467467,0.0136 -3.482985,-0.40365 v 0.57729 c 0.0012,0.0917 0.0023,0.15652 0.0023,0.15748 v 0.005" />
      <path
         inkscape:connector-curvature="0"
         id="path74"
         style="fill:#25715e;fill-opacity:1;fill-rule:evenodd;stroke:none;stroke-width:0.03527778"
         d="m 72.809839,111.0292 0.164126,0.48849 0.514145,0.004 -0.412859,0.30635 0.15434,0.49142 -0.419752,-0.29862 -0.419199,0.29862 0.154203,-0.49142 -0.413135,-0.30635 0.514421,-0.004 0.16371,-0.48849" />
      <path
         inkscape:connector-curvature="0"
         id="path76"
         style="fill:#25715e;fill-opacity:1;fill-rule:evenodd;stroke:none;stroke-width:0.03527778"
         d="m 77.319189,111.0292 0.164148,0.48849 0.514138,0.004 -0.412856,0.30635 0.154199,0.49142 -0.419629,-0.29862 -0.419206,0.29862 0.154199,-0.49142 -0.413243,-0.30635 0.514561,-0.004 0.163689,-0.48849" />
      <path
         inkscape:connector-curvature="0"
         id="path78"
         style="fill:#25715e;fill-opacity:1;fill-rule:evenodd;stroke:none;stroke-width:0.03527778"
         d="m 75.064586,111.21921 0.164112,0.48838 0.514174,0.005 -0.412891,0.30621 0.154234,0.49139 -0.419629,-0.29859 -0.419199,0.29859 0.154193,-0.49139 -0.413266,-0.30621 0.514548,-0.005 0.163724,-0.48838" />
      <path
         inkscape:connector-curvature="0"
         id="path80"
         style="fill:#25715e;fill-opacity:1;fill-rule:nonzero;stroke:none;stroke-width:0.03527778"
         d="m 75.064586,116.41538 -0.180375,0.18041 v 0 0.48891 l 0.09275,0.25785 v 0.43642 h 0.17526 v -0.43642 l 0.09275,-0.25785 v 0 -0.48891 l -0.180376,-0.18041" />
      <path
         inkscape:connector-curvature="0"
         id="path82"
         style="fill:#25715e;fill-opacity:1;fill-rule:nonzero;stroke:none;stroke-width:0.03527778"
         d="m 75.152216,118.17239 v -0.26169 h -0.17526 v 0.26169 l -0.09275,0.16989 0.180375,0.22314 0.180376,-0.22314 -0.09275,-0.16989" />
      <path
         inkscape:connector-curvature="0"
         id="path84"
         style="fill:#25715e;fill-opacity:1;fill-rule:nonzero;stroke:none;stroke-width:0.03527778"
         d="m 75.283132,117.9107 v 0.20118 l 0.117158,0.12651 0.203094,-0.16302 v -0.16467 h -0.320252" />
      <path
         inkscape:connector-curvature="0"
         id="path86"
         style="fill:#25715e;fill-opacity:1;fill-rule:nonzero;stroke:none;stroke-width:0.03527778"
         d="m 75.500725,117.10315 -0.217593,0.2395 v 0.43632 h 0.175154 v -0.25936 l 0.171309,-0.18549 1.41e-4,2.8e-4 0.216465,0.14054 0.139735,-0.14068 v -0.23111 h -0.485211" />
      <path
         inkscape:connector-curvature="0"
         id="path88"
         style="fill:#25715e;fill-opacity:1;fill-rule:nonzero;stroke:none;stroke-width:0.03527778"
         d="m 74.84604,117.9107 v 0.20118 l -0.117143,0.12651 -0.203122,-0.16302 v -0.16467 h 0.320265" />
      <path
         inkscape:connector-curvature="0"
         id="path90"
         style="fill:#25715e;fill-opacity:1;fill-rule:nonzero;stroke:none;stroke-width:0.03527778"
         d="m 74.628436,117.10315 0.217604,0.2395 v 0.43632 h -0.175161 v -0.25936 l -0.171288,-0.18549 -1.37e-4,2.8e-4 -0.216489,0.14054 -0.139736,-0.14068 v -0.23111 h 0.485207" />
      <path
         inkscape:connector-curvature="0"
         id="path92"
         style="fill:#e0bfa2;fill-opacity:1;fill-rule:nonzero;stroke:none;stroke-width:0.03527778"
         d="m 76.724723,113.24948 v 2.07024 h -1.391849 l -0.09701,0.0841 -0.171274,0.14827 -0.171273,-0.14827 -0.09701,-0.0841 h -1.391698 v -2.07024 l -0.294485,0.21593 v 2.14726 h 1.639037 l 0.14416,0.12484 0.171273,0.14831 0.171274,-0.14831 0.144145,-0.12484 h 1.639041 v -2.14726 l -0.294323,-0.21593" />
      <path
         inkscape:connector-curvature="0"
         id="path94"
         style="fill:#e0bfa2;fill-opacity:1;fill-rule:nonzero;stroke:none;stroke-width:0.03527778"
         d="m 75.287683,113.07683 -0.05182,0.0449 -0.171274,0.14827 -0.171273,-0.14827 -0.05182,-0.0449 h -1.142538 v 1.95033 h 1.144866 l 0.07994,0.0692 0.140829,0.12196 0.140829,-0.12196 0.07994,-0.0692 h 1.144869 v -1.95033 H 75.28769" />
      <path
         inkscape:connector-curvature="0"
         id="path96"
         style="fill:#e0bfa2;fill-opacity:1;fill-rule:nonzero;stroke:none;stroke-width:0.03527778"
         d="m 77.31933,113.68315 v 1.32126 c 0.376203,-0.0547 0.78867,-0.12528 1.228514,-0.21636 v -1.32126 c -0.439844,0.0911 -0.852311,0.16164 -1.228514,0.21636" />
      <path
         inkscape:connector-curvature="0"
         id="path98"
         style="fill:#e0bfa2;fill-opacity:1;fill-rule:nonzero;stroke:none;stroke-width:0.03527778"
         d="m 72.809839,113.68315 c -0.376203,-0.0547 -0.788649,-0.12527 -1.22852,-0.21636 v 1.32126 c 0.439871,0.0911 0.852317,0.16164 1.22852,0.21636 v -1.32126" />
      <path
         inkscape:connector-curvature="0"
         id="path100"
         style="fill:#25715e;fill-opacity:1;fill-rule:nonzero;stroke:none;stroke-width:0.03527778"
         d="m 77.319189,116.23969 -0.126365,0.12623 v 0 0.3423 l 0.06491,0.18051 v 0.30565 h 0.122767 v -0.30565 l 0.06491,-0.18051 v 0 -0.3423 l -0.126224,-0.12623" />
      <path
         inkscape:connector-curvature="0"
         id="path102"
         style="fill:#25715e;fill-opacity:1;fill-rule:nonzero;stroke:none;stroke-width:0.03527778"
         d="m 77.380502,117.46972 v -0.18312 h -0.122767 v 0.18312 l -0.06491,0.11907 0.126365,0.15628 0.126224,-0.15628 -0.06491,-0.11907" />
      <path
         inkscape:connector-curvature="0"
         id="path104"
         style="fill:#25715e;fill-opacity:1;fill-rule:nonzero;stroke:none;stroke-width:0.03527778"
         d="m 77.472154,117.2866 v 0.14082 l 0.08199,0.0886 0.142346,-0.11412 v -0.11532 h -0.224331" />
      <path
         inkscape:connector-curvature="0"
         id="path106"
         style="fill:#25715e;fill-opacity:1;fill-rule:nonzero;stroke:none;stroke-width:0.03527778"
         d="m 77.624554,116.72116 -0.1524,0.16771 v 0.30551 h 0.12266 v -0.18161 l 0.119874,-0.12982 1.41e-4,1.4e-4 0.15173,0.0984 0.09768,-0.0985 V 116.7212 H 77.62455" />
      <path
         inkscape:connector-curvature="0"
         id="path108"
         style="fill:#25715e;fill-opacity:1;fill-rule:nonzero;stroke:none;stroke-width:0.03527778"
         d="m 77.166084,117.2866 v 0.14082 l -0.08199,0.0886 -0.142205,-0.11412 v -0.11532 h 0.224191" />
      <path
         inkscape:connector-curvature="0"
         id="path110"
         style="fill:#25715e;fill-opacity:1;fill-rule:nonzero;stroke:none;stroke-width:0.03527778"
         d="m 77.013825,116.72116 0.152259,0.16771 v 0.30551 h -0.122626 v -0.18161 l -0.119909,-0.12982 v 1.4e-4 l -0.151695,0.0984 -0.09772,-0.0985 v -0.16179 h 0.33969" />
      <path
         inkscape:connector-curvature="0"
         id="path112"
         style="fill:#25715e;fill-opacity:1;fill-rule:nonzero;stroke:none;stroke-width:0.03527778"
         d="m 72.809839,116.23969 -0.126228,0.12623 v 0 0.3423 l 0.06491,0.18051 v 0.30565 H 72.8713 v -0.30565 l 0.06491,-0.18051 v 0 -0.3423 l -0.126368,-0.12623" />
      <path
         inkscape:connector-curvature="0"
         id="path114"
         style="fill:#25715e;fill-opacity:1;fill-rule:nonzero;stroke:none;stroke-width:0.03527778"
         d="m 72.8713,117.46972 v -0.18312 h -0.122781 v 0.18312 l -0.06491,0.11907 0.126228,0.15628 0.126368,-0.15628 -0.06491,-0.11907" />
      <path
         inkscape:connector-curvature="0"
         id="path116"
         style="fill:#25715e;fill-opacity:1;fill-rule:nonzero;stroke:none;stroke-width:0.03527778"
         d="m 72.962941,117.2866 v 0.14082 l 0.08199,0.0886 0.142216,-0.11412 v -0.11532 h -0.224208" />
      <path
         inkscape:connector-curvature="0"
         id="path118"
         style="fill:#25715e;fill-opacity:1;fill-rule:nonzero;stroke:none;stroke-width:0.03527778"
         d="m 73.115214,116.72116 -0.152273,0.16771 v 0.30551 h 0.122643 v -0.18161 l 0.119891,-0.12982 1.38e-4,1.4e-4 0.151585,0.0984 0.0977,-0.0985 v -0.16179 h -0.339686" />
      <path
         inkscape:connector-curvature="0"
         id="path120"
         style="fill:#25715e;fill-opacity:1;fill-rule:nonzero;stroke:none;stroke-width:0.03527778"
         d="m 72.656878,117.2866 v 0.14082 l -0.08199,0.0886 -0.142353,-0.11412 v -0.11532 h 0.224346" />
      <path
         inkscape:connector-curvature="0"
         id="path122"
         style="fill:#25715e;fill-opacity:1;fill-rule:nonzero;stroke:none;stroke-width:0.03527778"
         d="m 72.504467,116.72116 0.152411,0.16771 v 0.30551 h -0.122647 v -0.18161 l -0.119888,-0.12982 -1.38e-4,1.4e-4 -0.151585,0.0984 -0.09784,-0.0985 v -0.16179 h 0.339686" />
    </g>
  </g>
</svg>
