<?xml version="1.0" encoding="UTF-8" standalone="no"?>
<!-- Created with Inkscape (http://www.inkscape.org/) -->

<svg
   xmlns:dc="http://purl.org/dc/elements/1.1/"
   xmlns:cc="http://creativecommons.org/ns#"
   xmlns:rdf="http://www.w3.org/1999/02/22-rdf-syntax-ns#"
   xmlns:svg="http://www.w3.org/2000/svg"
   xmlns="http://www.w3.org/2000/svg"
   xmlns:sodipodi="http://sodipodi.sourceforge.net/DTD/sodipodi-0.dtd"
   xmlns:inkscape="http://www.inkscape.org/namespaces/inkscape"
   width="4.8552165mm"
   height="4.54494mm"
   viewBox="0 0 4.8552165 4.54494"
   version="1.1"
   id="svg8"
   inkscape:version="0.92.4 5da689c313, 2019-01-14"
   sodipodi:docname="i.svg">
  <defs
     id="defs2" />
  <sodipodi:namedview
     id="base"
     pagecolor="#ffffff"
     bordercolor="#666666"
     borderopacity="1.0"
     inkscape:pageopacity="0.0"
     inkscape:pageshadow="2"
     inkscape:zoom="3.2783389"
     inkscape:cx="139.69062"
     inkscape:cy="-0.28668808"
     inkscape:document-units="mm"
     inkscape:current-layer="layer1"
     showgrid="false"
     inkscape:window-width="1853"
     inkscape:window-height="1145"
     inkscape:window-x="67"
     inkscape:window-y="27"
     inkscape:window-maximized="1" />
  <metadata
     id="metadata5">
    <rdf:RDF>
      <cc:Work
         rdf:about="">
        <dc:format>image/svg+xml</dc:format>
        <dc:type
           rdf:resource="http://purl.org/dc/dcmitype/StillImage" />
        <dc:title></dc:title>
      </cc:Work>
    </rdf:RDF>
  </metadata>
  <g
     inkscape:label="Layer 1"
     inkscape:groupmode="layer"
     id="layer1"
     transform="translate(-95.707112,-121.18864)">
    <g
       id="g36">
      <path
         inkscape:connector-curvature="0"
         id="path24"
         style="fill:#100f0d;fill-opacity:1;fill-rule:nonzero;stroke:none;stroke-width:0.03527778"
         d="m 96.764831,121.59832 c 0,-0.0927 -0.188666,-0.40968 -0.273121,-0.40968 -0.07786,0 -0.272732,0.32466 -0.272732,0.40968 0,0.0852 0.194874,0.40213 0.272732,0.40213 0.08446,0 0.273121,-0.30925 0.273121,-0.40213" />
      <path
         inkscape:connector-curvature="0"
         id="path26"
         style="fill:#100f0d;fill-opacity:1;fill-rule:nonzero;stroke:none;stroke-width:0.03527778"
         d="m 100.04358,125.09193 v -1.30666 c 0,-0.6022 -0.193461,-1.48154 -1.085459,-1.48154 -0.645478,0 -0.978535,0.61242 -0.964918,0.5176 v -0.45449 c 0,-0.0792 -0.04036,-0.12675 -0.08019,-0.12675 -0.153106,0 -0.266947,0.26003 -0.787542,0.41603 -0.03351,0.008 -0.128869,0.009 -0.13215,0.069 0,0.16619 0.522534,-0.21636 0.513856,0.43406 v 1.96427 c 0,0.3689 -0.180093,0.39729 -0.311856,0.4327 -0.0084,2.8e-4 -0.01475,-0.001 -0.02508,4.1e-4 -0.133668,-0.008 -0.4185,-0.0597 -0.4185,-0.34561 v -2.84415 c 0,-0.0792 -0.03997,-0.12636 -0.0798,-0.12636 -0.153105,0 -0.251777,0.27852 -0.67758,0.421 -0.03348,0.008 -0.09479,0.0146 -0.09479,0.0622 0,0.16634 0.382128,-0.15642 0.366007,0.43558 v 1.8696 c 0.01461,0.47831 -0.246416,0.52393 -0.390279,0.52393 -0.215794,-0.003 -0.162313,0.0244 -0.162313,0.0914 0.0067,0.0792 0.136561,0.0852 0.350415,0.0861 0.07345,0 0.255622,-0.0277 0.468524,-0.0277 0.273297,0 0.479284,0.031 0.619301,0.031 0.08022,0 0.296157,-0.0316 0.648512,-0.0316 0.386538,0 0.519641,0.0316 0.632389,0.0316 0.100189,0 0.214948,-0.0437 0.146897,-0.1108 -0.107492,-0.105 -0.585823,0.0161 -0.585823,-0.53082 v -1.8219 c -0.0067,-0.12693 0.226025,-0.61779 0.785636,-0.61779 0.538939,0 0.778581,0.59394 0.778581,0.99013 v 1.48112 c -0.0067,0.58139 -0.207539,0.3977 -0.286209,0.51539 -0.04424,0.0656 0.03306,0.0947 0.119627,0.0947 0.08692,0 0.226378,-0.0316 0.479249,-0.0316 0.326215,0 0.469095,0.0302 0.555625,0.0302 0.0666,0 0.18757,-0.051 0.11328,-0.11135 -0.16824,-0.13518 -0.49982,0.071 -0.49541,-0.52889" />
    </g>
  </g>
</svg>
