<?xml version="1.0" encoding="UTF-8" standalone="no"?>
<!-- Created with Inkscape (http://www.inkscape.org/) -->

<svg
   xmlns:dc="http://purl.org/dc/elements/1.1/"
   xmlns:cc="http://creativecommons.org/ns#"
   xmlns:rdf="http://www.w3.org/1999/02/22-rdf-syntax-ns#"
   xmlns:svg="http://www.w3.org/2000/svg"
   xmlns="http://www.w3.org/2000/svg"
   xmlns:sodipodi="http://sodipodi.sourceforge.net/DTD/sodipodi-0.dtd"
   xmlns:inkscape="http://www.inkscape.org/namespaces/inkscape"
   version="1.1"
   id="svg2"
   xml:space="preserve"
   width="149.71205"
   height="99.781601"
   viewBox="0 0 149.71206 99.781602"
   sodipodi:docname="3topa.svg"
   inkscape:version="0.92.4 5da689c313, 2019-01-14"><metadata
     id="metadata8"><rdf:RDF><cc:Work
         rdf:about=""><dc:format>image/svg+xml</dc:format><dc:type
           rdf:resource="http://purl.org/dc/dcmitype/StillImage" /><dc:title></dc:title></cc:Work></rdf:RDF></metadata><defs
     id="defs6" /><sodipodi:namedview
     pagecolor="#ffffff"
     bordercolor="#666666"
     borderopacity="1"
     objecttolerance="10"
     gridtolerance="10"
     guidetolerance="10"
     inkscape:pageopacity="0"
     inkscape:pageshadow="2"
     inkscape:window-width="1853"
     inkscape:window-height="1145"
     id="namedview4"
     showgrid="false"
     inkscape:zoom="3.915496"
     inkscape:cx="70.326819"
     inkscape:cy="47.936411"
     inkscape:window-x="67"
     inkscape:window-y="27"
     inkscape:window-maximized="1"
     inkscape:current-layer="g10" /><g
     id="g10"
     inkscape:groupmode="layer"
     inkscape:label="ink_ext_XXXXXX"
     transform="matrix(1.3333333,0,0,-1.3333333,0,120.54893)"><path
       inkscape:connector-curvature="0"
       id="path54"
       style="fill:#100f0d;fill-opacity:1;fill-rule:nonzero;stroke:none;stroke-width:0.1"
       d="m 103.816,34.2293 c -0.28,0 -0.995,-0.043 -1.637,-0.043 -0.783,0 -1.168,0.0938 -1.502,0.0938 -0.504,0 -0.9883,-0.0039 -0.9024,-0.3321 0.0977,-0.371 1.7894,-0.2382 1.7894,-2.08 0,-0.2364 0,-0.545 -0.336,-1.7696 l -2.1526,-6.8492 -2.9902,8.4156 c 0,0 -0.1407,0.2715 -0.1407,0.8188 0,1.3609 1.5918,1.2125 1.6543,1.4547 0.0508,0.1992 -0.2168,0.4062 -0.6367,0.4062 -0.4473,0 -1.1055,-0.0039 -2.0957,-0.0039 -0.1566,0 -0.2996,-8e-4 -0.4414,-0.0023 4e-4,0.0015 0.0016,0.0047 0.002,0.0062 h -1.2071 c -0.0176,0 -0.0273,-0.0078 -0.0469,-0.0078 h -2.8964 c 0,2.4883 0.0273,3.1387 -0.3594,3.1387 -0.3711,0 -0.3145,-0.1016 -0.6504,-1.2086 -0.5586,-1.852 -2.5977,-2.6645 -3.248,-3.0668 -0.1583,-0.0781 -0.1504,-0.1074 -0.1563,-0.2031 -0.0137,-0.2344 0.7754,-0.1383 2.3945,-0.1797 l -0.0078,-8.332 c 0,-3.5582 1.6934,-4.1618 2.9629,-4.1618 1.9336,0 3.3145,1.3731 3.3945,1.8594 0,0.2754 -0.0351,0.3027 -0.1914,0.2793 -0.2695,-0.1308 -0.8828,-0.7949 -2.3476,-0.7949 -1.1035,0 -1.7422,0.6562 -1.7969,2.0723 v 9.105 c 0,0 2.5805,0.0078 3.3066,0.0094 0.0399,-0.0617 0.0782,-0.1254 0.1036,-0.2008 l 3.0898,-8.7261 c 0.252,-0.7149 0.4004,-0.9473 0.7031,-2.211 0.1992,-0.8242 0.125,-1.5586 0.125,-1.5586 -0.2988,-1.3125 -1.1054,-2.0644 -2.334,-4.4844 -0.1191,-0.2343 1.7735,0.0235 1.8672,0.0528 0.1524,0.0469 0.1348,0.0898 0.3184,0.4336 l 1.3656,4.0687 3.81,11.7082 c 0.559,2.045 1.444,1.6723 1.578,1.9512 0.08,0.1719 -0.052,0.3418 -0.388,0.3418" /><path
       inkscape:connector-curvature="0"
       id="path14"
       style="fill:#100f0d;fill-opacity:1;fill-rule:nonzero;stroke:none;stroke-width:0.1"
       d="m 9.18555,43.9254 c 0.28164,0.0019 0.33633,0.5937 0.43476,0.8184 l 3.22929,8.8671 3.152,-8.4257 c 0.1339,-0.336 0.316,-1.2579 0.6461,-1.2598 0.2722,0 0.3703,0.4355 0.5113,0.8574 l 6.0887,17.4219 c 0.5117,1.4004 1.1043,2.8848 2.0742,3.0527 0.3773,0.0547 0.566,0.1953 0.566,0.1953 0,0.252 -0.0539,0.3086 -0.4043,0.3086 -0.6734,0 -1.0777,-0.1133 -1.7512,-0.1133 -0.7269,0 -1.2929,0.084 -1.9125,0.084 -0.3504,0 -0.3234,-0.1113 -0.3234,-0.3086 0,-0.2226 0.6734,-0.082 1.0508,-0.9218 0.2156,-0.4473 0.1347,-1.4004 -0.0809,-1.959 l -5.1719,-14.1934 -2.209,6.2969 -0.8625,2.2969 c 0,0 -0.1339,-0.0567 0.4848,1.8476 l 1.2125,3.6387 c 0.593,1.791 1.1836,2.7305 1.9395,2.7441 0.9515,0.0157 0.9504,0.5879 0.2226,0.5879 -0.7269,0 -1.1652,-0.0566 -1.8121,-0.0566 -0.673,0 -1.023,0.0566 -1.7508,0.0566 -0.2691,0 -0.5656,-0.084 -0.5386,-0.3086 0.0269,-0.2246 0.4308,-0.1406 0.7269,-0.3066 0.4856,-0.2539 0.8082,-1.2891 0.4582,-2.3809 l -1.4277,-4.5625 -1.616,4.2539 c -0.3235,0.8125 -0.75,2.5977 0.0324,2.7598 0.7551,0.1543 0.6523,0.5449 0.1945,0.5449 -0.8887,0 -1.3586,-0.1133 -2.2207,-0.1133 -0.94295,0 -1.64334,0.1133 -2.53162,0.1133 -0.18907,0 -0.53907,-0.0293 -0.43125,-0.3925 0.05351,-0.2227 0.51171,-0.1407 0.78125,-0.3086 1.07695,-0.6993 1.29296,-1.5957 1.66992,-2.6036 l 2.3703,-6.6894 c 0.4313,-1.2031 0.4582,-0.7559 0.1082,-1.793 l -2.0742,-5.6816 -5.0918,14.584 c -0.40391,1.0937 -0.61914,1.8496 0.26953,2.2695 0.37734,0.1953 0.48867,0.2324 0.53906,0.3066 0.04961,0.0743 0.09609,0.3282 -0.4582,0.3086 C 4.36445,65.7281 3.79766,65.648 2.88242,65.648 1.9125,65.648 1.23945,65.7613 0.35,65.7613 0.0535156,65.7613 0,65.6207 0,65.398 c 0,-0.3378 0.726953,-0.1132 1.34688,-0.8398 0.35,-0.3926 1.02382,-1.709 1.18476,-2.1855 l 6.14961,-17.67 c 0.11211,-0.2636 0.14023,-0.7773 0.5043,-0.7773" /><path
       inkscape:connector-curvature="0"
       id="path16"
       style="fill:#100f0d;fill-opacity:1;fill-rule:nonzero;stroke:none;stroke-width:0.1"
       d="m 112.19,44.7594 c -0.675,0.5429 -2.008,-0.2852 -1.991,2.125 v 5.25 c 0,2.4199 -0.776,5.9531 -4.359,5.9531 -2.595,0 -3.932,-2.4609 -3.879,-2.0801 v 1.8262 c 0,0.3184 -0.16,0.5098 -0.32,0.5098 -0.616,0 -1.073,-1.045 -3.1656,-1.6719 -0.134,-0.0313 -0.518,-0.0352 -0.5316,-0.2774 0,-0.6679 2.1012,0.8692 2.0652,-1.7441 v -7.8926 c 0,-2.0703 -1.3922,-1.5703 -1.7082,-2.1113 -0.1613,-0.2754 0.2637,-0.3398 0.6113,-0.3398 0.3215,0 0.8559,0.1269 2.2739,0.1269 1.551,0 2.086,-0.1269 2.541,-0.1269 0.401,0 0.862,0.1757 0.588,0.4453 -0.43,0.4218 -2.354,-0.0645 -2.354,2.1328 v 7.3203 c -0.026,0.5098 0.91,2.4824 3.157,2.4824 2.166,0 3.129,-2.3867 3.129,-3.9785 v -5.9512 c -0.027,-2.3359 -0.833,-1.5976 -1.15,-2.0703 -0.178,-0.2637 0.134,-0.3808 0.481,-0.3808 0.348,0 0.91,0.1269 1.925,0.1269 1.311,0 1.885,-0.1211 2.232,-0.1211 0.268,0 0.754,0.2051 0.455,0.4473" /><path
       inkscape:connector-curvature="0"
       id="path18"
       style="fill:#100f0d;fill-opacity:1;fill-rule:nonzero;stroke:none;stroke-width:0.1"
       d="m 28.1801,47.6637 c 0,-1.7012 -1.7266,-2.5996 -2.6891,-2.5996 -1.4172,0 -2.4109,0.9218 -2.4109,2.75 0,2.8242 3.3883,3.3379 5.1,3.7871 z M 21.6016,53.15 c 0.2589,-0.293 1.3,0.832 1.3625,0.8926 0.0629,0.0586 0.0765,0.1328 0.0765,0.1328 -0.0062,1.3398 1.0016,3.0469 2.4461,3.1894 1.6504,0.1641 2.475,-1.0703 2.475,-2.7402 v -2.1621 c -6.2582,-1.25 -7.1644,-3.332 -7.1644,-5.0312 0,-2.2774 1.6015,-3.2969 3.3398,-3.2969 1.4981,0 2.9688,0.7051 4.0926,1.8594 0.3473,-1.0586 1.0437,-1.6973 2.0863,-1.6661 0.3617,0.0098 0.416,-0.0898 1.5145,0.3848 0.3804,0.0992 0.3597,0.0938 0.7957,0.0133 0.5761,-0.202 1.3633,-0.5895 2.7472,-0.5895 2.0969,-0.0312 3.977,1.9102 3.977,4.3125 0,1.4805 -0.4316,2.42 -2.4625,3.6797 -0.5258,0.252 -1.3121,0.7012 -1.7004,0.9141 -1.6777,0.9179 -2.3398,1.5195 -2.3871,2.3789 -0.0777,1.4883 1.1855,2.2598 2.2809,2.1523 2.6199,0.045 2.971,-2.8906 3.239,-2.8906 0.4004,0 0.2942,0.3848 0.2942,1.25 0,0.2246 0.0265,1.3145 -0.1348,1.5703 -0.3207,0.4824 -2.1746,0.7637 -2.6281,0.7637 -0.1145,0 -0.5434,0.0137 -0.6172,0.0156 -0.127,0.0039 -0.2922,-0.0156 -0.2922,-0.0156 -1.866,0.0293 -3.6109,-1.1524 -3.5559,-3.6504 0.0512,-2.2773 2.7282,-3.5762 4.1727,-4.4414 1.0687,-0.6094 2.3277,-1.1895 2.3117,-2.6484 -0.0203,-1.6641 -1.3102,-2.7676 -2.6977,-2.6758 -3.2511,0.0547 -2.8058,4.1328 -3.3921,4.1328 -0.4004,0 -0.3192,-1.0254 -0.3207,-1.5703 -0.002,-0.5278 -0.0114,-1.0121 -0.0118,-1.4192 -0.0656,-0.3746 -0.2148,-0.7183 -0.5621,-0.739 -1.2804,-0.0762 -0.9718,1.959 -0.9718,3.0488 v 6.6426 c -0.0622,2.0332 -1.5926,3.3594 -3.9184,3.3594 -3.1934,0 -5.4766,-3.9336 -4.3945,-5.1563" /><path
       inkscape:connector-curvature="0"
       id="path20"
       style="fill:#100f0d;fill-opacity:1;fill-rule:nonzero;stroke:none;stroke-width:0.1"
       d="m 73.5523,45.3082 c 0.2168,0.0137 0.277,-0.0781 2.725,-0.1777 2.5317,-0.0586 3.4434,-0.8008 3.5989,-1.4532 0.2746,-1.1562 -0.5485,-3.6367 -4.1828,-3.3964 -2.2868,0.1484 -2.9563,1.2363 -3.1332,1.4882 -0.8528,1.2071 -0.1497,3.4707 0.9921,3.5391 z m 1.9754,12.4512 c 2.1786,0 3.0489,-2.2344 3.0489,-4.1953 0,-1.9942 -0.909,-3.5371 -2.9418,-3.5371 -2.1489,0 -2.8668,2.0742 -2.8668,4.0351 0,2.0234 0.6109,3.6973 2.7597,3.6973 z m 16.9817,-0.3867 c 3.1832,0 4.3328,-3.3965 4.3328,-6.7207 0,-4.002 -1.4176,-5.5918 -3.6641,-5.5918 -3.1293,0 -4.3597,3.8808 -4.3597,7.0449 0,2.7422 1.0699,5.2676 3.691,5.2676 z M 40.8395,62.0699 V 46.4703 c 0,-1.5605 -1.336,-1.3476 -1.5782,-1.8457 -0.0418,-0.2168 0.0801,-0.3183 0.2676,-0.3183 0.4277,0 1.6043,0.125 2.4336,0.125 0.8297,0 2.1672,-0.125 2.7285,-0.125 0.3211,0 0.4543,0.0625 0.4543,0.4453 -0.2793,0.5429 -2.3531,-0.2871 -2.3531,2.4511 v 6.7149 c 0,1.623 1.9258,2.8652 3.1293,2.8652 0.9359,0 3.2363,-0.7324 3.2363,-4.6797 v -5.8242 c 0,-1.1465 -1.2176,-1.2656 -1.3105,-1.625 0,-0.2539 0.1601,-0.3476 0.4277,-0.3476 0.2941,0 1.1496,0.125 2.1934,0.125 0.5832,0 1.1097,-0.0301 1.5535,-0.0563 0.241,-0.0461 0.5867,-0.0531 1.0164,-0.0551 0.2937,0 1.0265,0.1114 1.8828,0.1114 0.8449,0 1.5277,-0.0731 2.0551,-0.1071 0.1015,-0.0058 0.2051,-0.0101 0.3109,-0.0129 0.0383,-8e-4 0.0852,-0.005 0.1211,-0.005 0.002,0 0.0043,0.0015 0.0063,0.0019 0.3265,-0.0055 0.63,0 0.7554,0 0.3207,0 0.8559,0.127 2.2735,0.127 1.5511,0 2.0859,-0.127 2.541,-0.127 0.4008,0 0.8625,0.1777 0.5883,0.4453 -0.4305,0.4219 -2.3539,-0.0644 -2.3539,2.1328 v 7.3203 c -0.0262,0.5098 0.9097,2.4825 3.1562,2.4825 2.1664,0 3.1297,-2.3868 3.1297,-3.9786 v -5.9511 c 0,-2.0703 -0.8332,-1.5977 -1.15,-2.0703 -0.1777,-0.2637 0.1336,-0.3809 0.4812,-0.3809 0.3477,0 0.909,0.127 1.9258,0.127 0.9629,0 1.5774,-0.068 1.9742,-0.1047 -0.2949,-0.4309 -0.5004,-0.9262 -0.5293,-1.4481 -0.1429,-2.5879 3.0297,-3.5156 5.6934,-3.4801 5.2859,0.07 6.7848,3.7418 5.6898,5.6852 -1.1296,2.0078 -3.5472,1.9258 -5.8668,1.918 -4.3417,-0.0157 -3.5195,2.6738 -1.7515,2.5742 0.4074,-0.0234 0.2125,-0.1387 1.6207,-0.1387 2.5125,0 4.9199,1.707 4.8488,4.5195 -0.0058,0.2383 0.0535,1.0586 -0.5508,2.211 1.1754,-0.0051 0.7078,0.0043 2.4899,0.0019 L 82.373,48.2965 c 0,-3.5586 1.6942,-4.1621 2.9633,-4.1621 1.8035,0 3.1133,1.1871 3.3473,1.7422 1.0602,-1.1352 2.5391,-1.7422 4.2539,-1.7422 3.2895,0 5.7773,3.0332 5.7773,7.0019 0,6.002 -3.7714,7.1953 -5.8043,7.1953 -3.3699,0 -5.964,-3.3886 -5.964,-7.3574 0,-2.0156 0.5433,-3.6246 1.4668,-4.7781 -0.3199,-0.2172 -0.9492,-0.718 -2.2207,-0.718 -1.1043,0 -1.743,0.6563 -1.7981,2.0723 v 8.6269 c 0,0 3.3063,0.0098 3.4907,0.0098 0.2281,0 0.6714,1.4922 0.6871,1.5684 0.0386,0.1875 0.1023,0.3379 0.123,0.4726 0.0442,0.2852 -0.1773,0.3086 -0.3773,0.0078 -0.1621,-0.1543 -0.3313,-0.5664 -1.0211,-0.5664 H 84.4 c 0,2.4883 0.0281,3.6172 -0.3586,3.6172 -0.3703,0 -0.3144,-0.1015 -0.6504,-1.209 -0.4496,-1.4879 -1.8449,-2.2988 -2.7168,-2.7711 -0.3906,-0.0886 -0.8351,-0.1211 -1.3301,-0.0121 -0.7578,0.166 -1.6539,1.086 -3.9453,1.086 -2.4566,0 -4.6058,-2.0078 -4.6058,-4.7012 0,-1.4512 0.6418,-2.8477 1.7734,-3.5879 -0.2094,-0.125 -1.5797,-1.2793 -1.4137,-2.6367 0,0 -0.0277,-1.4063 1.077,-1.8809 -0.3434,-0.1363 -0.6875,-0.3656 -0.9938,-0.6543 -0.7218,0.2653 -1.7789,0.0649 -1.7789,1.9668 v 5.252 c 0,2.4199 -0.7757,5.9512 -4.3597,5.9512 -2.5946,0 -3.9317,-2.461 -3.8785,-2.0782 v 1.8242 c 0,0.3184 -0.1602,0.5098 -0.3208,0.5098 -0.6152,0 -0.7488,-1.0215 -3.0011,-1.6015 -0.1336,-0.0333 -0.4352,-0.1036 -0.4489,-0.3477 0,-0.668 1.8071,0.7305 1.8188,-1.7441 v -7.8926 c 0,-1.6973 -1.3469,-1.7012 -1.5855,-1.7246 -0.0954,0 -0.2016,-0.0039 -0.3196,-0.0059 -0.5691,0.0551 -1.5582,0.3063 -1.5582,1.377 v 11.4277 c 0,0.3184 -0.1605,0.5078 -0.3211,0.5078 -0.6152,0 -1.0105,-1.1191 -2.7226,-1.6914 -0.1336,-0.0312 -0.3797,-0.0586 -0.3797,-0.25 0,-0.668 1.5355,0.6289 1.4711,-1.75 v -7.5117 c 0.0554,-1.8352 -0.8946,-2.0824 -1.4844,-2.1012 -0.7129,0.0859 -1.257,0.3758 -1.257,1.4645 v 5.3144 c 0,2.7383 -1.0426,6.2715 -4.466,6.2715 -1.525,0 -2.8356,-0.8398 -3.8516,-1.9844 v 9.1485 c 0,0.3183 -0.1613,0.5 -0.3207,0.5097 -0.4117,0.0254 -1.1027,-1.2324 -3.0555,-1.6777 -0.134,-0.0313 -0.6363,-0.0723 -0.6363,-0.2637 0,-0.6679 2.0262,0.3164 2.0598,-1.75" /><path
       inkscape:connector-curvature="0"
       id="path22"
       style="fill:#100f0d;fill-opacity:1;fill-rule:nonzero;stroke:none;stroke-width:0.1"
       d="m 54.759,59.3063 c 0.3394,0 1.0965,1.2421 1.0965,1.6152 0,0.373 -0.7571,1.6465 -1.0965,1.6465 -0.3133,0 -1.0961,-1.3047 -1.0961,-1.6465 0,-0.3418 0.7828,-1.6152 1.0961,-1.6152" /><path
       inkscape:connector-curvature="0"
       id="path44"
       style="fill:#100f0d;fill-opacity:1;fill-rule:nonzero;stroke:none;stroke-width:0.1"
       d="m 58.8773,33.7234 c 1.4731,0 2.9731,-1.6074 2.9731,-3.4062 0,-0.482 -0.1606,-0.6426 -0.5356,-0.6426 h -5.2769 c 0,1.7676 1.1773,4.0488 2.8394,4.0488 z m 0.6157,-13.4 c 2.4121,0 4.7422,2.3125 4.7422,3.0528 0,0.0957 0,0.2246 -0.1079,0.2246 -0.5878,0 -1.4722,-1.6719 -3.7769,-1.6719 -1.6352,0 -4.3125,1.5762 -4.3125,6.8785 h 7.1266 c 0.6156,0 0.9101,-0.0332 0.9101,0.5449 0,1.2852 -1.4473,5.1094 -4.7422,5.1094 -3.3496,0 -5.2515,-3.4375 -5.2515,-7.5508 0,-2.1207 1.3945,-6.5875 5.4121,-6.5875" /><path
       inkscape:connector-curvature="0"
       id="path46"
       style="fill:#100f0d;fill-opacity:1;fill-rule:nonzero;stroke:none;stroke-width:0.1"
       d="m 24.6813,38.6355 c 0,2.5157 1.232,2.2774 1.4667,2.6661 0.1043,0.1718 -0.2574,0.248 -0.3757,0.248 -0.4254,0 -1.4098,-0.1074 -1.859,-0.1074 -0.9227,0 -1.6903,0.0879 -2.6125,0.0879 -0.0707,0 -0.4727,-0.0508 -0.4742,-0.1875 -0.0063,-0.6543 2.1996,0.1094 2.1996,-2.6797 V 27.7414 c 0,-3.2285 -1.0168,-6.6191 -5.4621,-6.6191 -3.1918,0 -4.9203,1.9961 -4.9203,6.373 v 11.8785 c 0,1.9688 1.5414,1.545 1.5746,1.9844 0.0312,0.4219 -1.3653,0.1719 -1.484,0.1719 -0.7324,0 -1.2489,-0.0762 -2.0059,-0.0762 -0.6383,0 -1.41209,0.0957 -2.02694,0.0957 -0.11758,0 -0.55351,0.0234 -0.62617,-0.1523 -0.24023,-0.584 1.96991,-0.2735 1.96991,-1.8868 V 28.2336 c 0,-4.2129 1.1832,-8.3359 7.4008,-8.2324 7.3738,0.123 7.2352,6.7539 7.2352,8.0933 v 10.541" /><path
       inkscape:connector-curvature="0"
       id="path48"
       style="fill:#100f0d;fill-opacity:1;fill-rule:nonzero;stroke:none;stroke-width:0.1"
       d="m 48.1141,33.909 c 0.1699,0.2656 -0.1821,0.4062 -0.5571,0.4062 -0.3203,0 -0.689,-0.1113 -1.6797,-0.1347 -0.8218,-0.0215 -1.4043,-0.0157 -1.7632,0.0488 -0.9243,0.168 -0.85,-0.3418 -0.5278,-0.5039 0.3164,-0.1602 0.4707,-0.0117 0.9438,-1.3965 l 4.0445,-11.4215 c 0.082,-0.2304 0.1875,-0.7929 0.5371,-0.7929 0.4024,0 0.4024,0.3964 0.9106,1.7539 0,0 3.8668,10.816 4.1328,11.2086 0.523,0.7695 0.9195,0.5156 1.1109,0.7363 0.1801,0.209 0.2348,0.5488 -0.5933,0.4765 -0.4551,0 -0.7993,-0.08 -1.2559,-0.08 -0.5883,0 -0.6992,0.0195 -1.2617,0.041 -0.7016,0.0234 -0.893,-0.0528 -0.852,-0.2637 0.1211,-0.625 1.5981,-0.0137 1.3985,-1.8574 -0.17,-1.5488 -0.67,-2.8809 -1.1793,-4.2031 l -1.7953,-4.7672 -2.625,7.9449 c -0.3219,0.9922 -0.4547,1.5234 -0.4547,1.6211 0,0.9941 1.2007,0.7656 1.4668,1.1836" /><path
       inkscape:connector-curvature="0"
       id="path50"
       style="fill:#100f0d;fill-opacity:1;fill-rule:nonzero;stroke:none;stroke-width:0.1"
       d="m 69.4305,32.2234 c 0.9375,0 1.0547,-0.7226 1.5488,-0.7226 0.3125,0 0.9375,0.9433 0.9375,1.416 0,0.5957 -1.1723,1.416 -1.7191,1.416 -1.0957,0 -1.8614,-1.3223 -2.4098,-2.2344 h -0.0512 v 1.9825 c 0,0.3144 -0.1558,0.5039 -0.3125,0.5039 -0.4195,0 -0.7422,-0.8438 -2.9644,-1.3692 -0.1313,-0.0312 -0.5024,-0.1035 -0.5024,-0.2929 0,-0.6622 1.8789,0.1992 1.8774,-1.9883 v -8.3317 c 0,-1.289 -1.3301,-1.164 -1.3301,-1.8261 0,-0.1875 0.0777,-0.2813 0.2871,-0.2813 0.1812,0 0.652,0.125 2.3965,0.125 1.4605,0 2.0855,-0.125 2.4508,-0.125 0.2851,0 0.4164,0.0625 0.4164,0.3457 0,1.0078 -2.3188,-0.5039 -2.3188,2.4219 v 7.1051 c 0,0.4082 0.625,1.8554 1.6938,1.8554" /><path
       inkscape:connector-curvature="0"
       id="path52"
       style="fill:#100f0d;fill-opacity:1;fill-rule:nonzero;stroke:none;stroke-width:0.1"
       d="M 98.882,20.425 98.816,20.2281 98.8,20.1789 Z" /><path
       inkscape:connector-curvature="0"
       id="path56"
       style="fill:#100f0d;fill-opacity:1;fill-rule:nonzero;stroke:none;stroke-width:0.1"
       d="m 39.2879,20.5152 c 0.1141,-0.0023 0.2207,-0.0058 0.3508,-0.0062 0.2949,0 1.0273,0.1113 1.8828,0.1113 1.098,0 1.9262,-0.125 2.4887,-0.125 0.3476,0 0.7812,0.8301 0.0761,0.711 -0.5371,0.0312 -1.6812,0.2402 -1.6812,1.3886 v 11.4274 c 0,0.3183 -0.1606,0.5078 -0.3211,0.5078 -0.6152,0 -1.0117,-1.1192 -2.7227,-1.6914 -0.1347,-0.0313 -0.3808,-0.0586 -0.3808,-0.25 0,-0.6676 1.5351,0.6289 1.4707,-1.75 v -7.5114 c 0.0586,-1.9218 -0.9903,-2.1054 -1.5684,-2.1054 -0.0723,8e-4 -0.1265,-4e-4 -0.1844,-0.0012 -0.5605,0.1 -1.0882,0.3297 -1.0773,1.8527 v 5.2496 c 0,2.42 -0.7773,5.9532 -4.3598,5.9532 -2.5949,0 -3.9316,-2.461 -3.8777,-2.0801 v 1.8262 c 0,0.3183 -0.1613,0.5097 -0.3215,0.5097 -0.6152,0 -1.073,-1.0449 -3.1656,-1.6718 -0.1336,-0.0309 -0.5176,-0.0352 -0.5313,-0.2774 0,-0.668 2.1012,0.8692 2.0653,-1.7441 v -7.8922 c 0,-2.0703 -1.3922,-1.5703 -1.7082,-2.1113 -0.1614,-0.2754 0.2636,-0.3399 0.6113,-0.3399 0.3215,0 0.8562,0.127 2.2734,0.127 1.552,0 2.0868,-0.127 2.541,-0.127 0.4012,0 0.8622,0.1758 0.5887,0.4453 -0.4304,0.4219 -2.3531,-0.0644 -2.3531,2.1328 v 7.32 c -0.0277,0.5097 0.9078,2.4824 3.1559,2.4824 2.1656,0 3.1285,-2.3867 3.1285,-3.9781 v -5.9512 c -0.0274,-2.336 -0.834,-1.5977 -1.1504,-2.0703 -0.1778,-0.2637 0.1328,-0.3809 0.4804,-0.3809 0.3497,0 0.9102,0.127 1.9258,0.127 1.3106,0 1.8848,-0.1211 2.2325,-0.1211 0.0402,0 0.0851,0.0054 0.1316,0.014" /><path
       inkscape:connector-curvature="0"
       id="path58"
       style="fill:#100f0d;fill-opacity:1;fill-rule:nonzero;stroke:none;stroke-width:0.1"
       d="m 84.7445,37.1102 c 0,0.3734 -0.7554,1.6464 -1.0957,1.6464 -0.314,0 -1.0972,-1.3046 -1.0972,-1.6464 0,-0.3418 0.7832,-1.6153 1.0972,-1.6153 0.3403,0 1.0957,1.2422 1.0957,1.6153" /><path
       inkscape:connector-curvature="0"
       id="path60"
       style="fill:#100f0d;fill-opacity:1;fill-rule:nonzero;stroke:none;stroke-width:0.1"
       d="m 86.2977,20.4953 c 0.3472,0 0.7808,0.8301 0.0757,0.711 -0.5347,0.0312 -1.6796,0.2402 -1.6796,1.3886 v 11.4274 c 0,0.3183 -0.1622,0.5078 -0.3219,0.5078 -0.6156,0 -1.0102,-1.1192 -2.7231,-1.6914 -0.1328,-0.0313 -0.3789,-0.0586 -0.3789,-0.25 0,-0.6676 1.5356,0.6289 1.4707,-1.75 v -7.5114 c 0.0586,-1.9218 -0.9898,-2.1054 -1.5703,-2.1054 -0.8672,0.0117 -0.6504,-0.0977 -0.6504,-0.3672 0.0254,-0.3184 0.5489,-0.3418 1.4082,-0.3457 0.2934,0 1.0254,0.1113 1.8828,0.1113 1.0957,0 1.9258,-0.125 2.4868,-0.125" /><path
       inkscape:connector-curvature="0"
       id="path62"
       style="fill:#100f0d;fill-opacity:1;fill-rule:nonzero;stroke:none;stroke-width:0.1"
       d="m 41.3594,38.7566 c -0.3125,0 -1.0957,-1.3046 -1.0957,-1.6464 0,-0.3418 0.7832,-1.6153 1.0957,-1.6153 0.3398,0 1.098,1.2422 1.098,1.6153 0,0.3734 -0.7582,1.6464 -1.098,1.6464" /><path
       inkscape:connector-curvature="0"
       id="path64"
       style="fill:#100f0d;fill-opacity:1;fill-rule:nonzero;stroke:none;stroke-width:0.1"
       d="m 72.5477,21.0754 c 0.0488,-0.0586 0.207,-0.0293 0.5211,-0.0293 0.641,0 1.4242,-0.709 3.2953,-0.709 2.0957,-0.0312 3.9761,1.9102 3.9761,4.3145 0,1.4785 -0.4312,2.4199 -2.4629,3.6777 -0.5253,0.2516 -1.3125,0.7027 -1.7007,0.9141 -1.6782,0.9195 -2.3403,1.5211 -2.3871,2.3785 -0.0782,1.4902 1.1859,2.2597 2.2816,2.1523 2.6187,0.0469 2.9707,-2.8887 3.2383,-2.8887 0.4004,0 0.2949,0.3848 0.2949,1.25 0,0.2247 0.027,1.3145 -0.1352,1.5704 -0.3203,0.4804 -2.1738,0.7617 -2.6289,0.7617 -0.1132,0 -0.5425,0.0137 -0.6172,0.016 -0.1265,0.0035 -0.291,-0.016 -0.291,-0.016 -1.8672,0.0312 -3.6109,-1.1504 -3.5562,-3.6504 0.0508,-2.2754 2.7285,-3.5738 4.1734,-4.441 1.0688,-0.6074 2.3266,-1.1875 2.311,-2.6465 -0.02,-1.666 -1.311,-2.7695 -2.6973,-2.6777 -3.2524,0.0546 -2.807,4.1347 -3.393,4.1347 -0.4004,0 -0.3183,-1.0254 -0.3203,-1.5703 -0.0035,-1.291 -0.0562,-2.3516 0.0981,-2.541" /><path
       inkscape:connector-curvature="0"
       id="path66"
       style="fill:#25715e;fill-opacity:1;fill-rule:nonzero;stroke:none;stroke-width:0.1"
       d="m 56.143,89.1602 v 0 c 0,0 -4e-4,0 -8e-4,0 H 56.141 v 0 c -0.0918,-8e-4 -4.5496,-0.0422 -10.7988,1.2515 V 72.4313 72.3938 c 0.0039,-0.2844 0.007,-0.4852 0.007,-0.4887 l 4e-4,-0.0149 8e-4,-0.0148 c 0.0406,-0.8367 0.2894,-1.5031 0.7867,-2.0715 0.327,-0.3519 0.784,-0.7199 1.4203,-1.0754 0.1754,-0.0961 0.3641,-0.1926 0.5684,-0.2902 0.1543,-0.0727 0.3168,-0.1438 0.4887,-0.2141 v 0 l 7e-4,-4e-4 c 0.1352,-0.0554 0.5692,-0.2488 0.7149,-0.3023 l 6.8117,-2.5781 v -4e-4 h 4e-4 v 0 4e-4 l 6.8117,2.5781 c 0.1457,0.0535 0.5797,0.2469 0.7149,0.3023 l 7e-4,4e-4 v 0 c 0.1715,0.0703 0.3344,0.1414 0.4887,0.2141 0.2039,0.0976 0.393,0.1941 0.5684,0.2902 0.6363,0.3555 1.0929,0.7235 1.4203,1.0754 0.4972,0.5684 0.7461,1.2348 0.7867,2.0715 l 8e-4,0.0148 4e-4,0.0149 c 0,0.0035 0.0031,0.2043 0.0074,0.4887 v 0.0375 17.9804 C 60.6926,89.118 56.2348,89.1594 56.143,89.1602" /><path
       inkscape:connector-curvature="0"
       id="path68"
       style="fill:#e0bfa2;fill-opacity:1;fill-rule:nonzero;stroke:none;stroke-width:0.1"
       d="m 56.1426,88.0898 v 0 c 0,0 0,0 -4e-4,0 H 56.141 v 0 c -0.084,-0.0011 -4.1594,-0.039 -9.873,1.1442 v -4.607 c 5.7136,-1.1832 9.789,-1.1454 9.873,-1.1446 v 0 h 0.0012 c 4e-4,0 4e-4,0 4e-4,0 v 0 c 0.0844,-8e-4 4.1597,-0.0386 9.8734,1.1446 v 4.607 c -5.7137,-1.1832 -9.789,-1.1453 -9.8734,-1.1442" /><path
       inkscape:connector-curvature="0"
       id="path70"
       style="fill:#a31c21;fill-opacity:1;fill-rule:nonzero;stroke:none;stroke-width:0.1"
       d="m 56.1426,83.4824 v 0 c 0,0 0,0 -4e-4,0 H 56.141 v 0 c -0.084,-8e-4 -4.1594,-0.0386 -9.873,1.1446 v -5.6227 -4.607 c 5.7136,-1.1832 9.789,-1.1453 9.873,-1.1442 v 0 h 0.0012 c 4e-4,0 4e-4,0 4e-4,0 v 0 c 0.0844,-0.0011 4.1597,-0.039 9.8734,1.1442 v 4.607 5.6227 c -5.7137,-1.1832 -9.789,-1.1454 -9.8734,-1.1446" /><path
       inkscape:connector-curvature="0"
       id="path72"
       style="fill:#e0bfa2;fill-opacity:1;fill-rule:nonzero;stroke:none;stroke-width:0.1"
       d="m 46.275,72.3004 8e-4,-0.0137 c 0.0371,-0.7648 0.2644,-1.3738 0.7191,-1.8937 0.2992,-0.3219 0.7168,-0.6582 1.2985,-0.9832 0.1605,-0.0879 0.3332,-0.1758 0.5195,-0.2653 0.1414,-0.0664 0.2898,-0.1316 0.4469,-0.1957 v 0 l 7e-4,-4e-4 c 0.1235,-0.0504 0.5204,-0.2273 0.6536,-0.2765 l 6.2277,-2.3571 v 0 h 4e-4 v 0 0 l 6.2277,2.3571 c 0.1332,0.0492 0.5297,0.2261 0.6535,0.2765 l 8e-4,4e-4 v 0 c 0.1567,0.0641 0.3055,0.1293 0.4469,0.1957 0.1863,0.0895 0.359,0.1774 0.5191,0.2653 0.5821,0.325 0.9996,0.6613 1.2989,0.9832 0.4543,0.5199 0.682,1.1289 0.7191,1.8937 l 8e-4,0.0137 4e-4,0.0137 c 0,0.0031 0.0027,0.1867 0.0066,0.4468 v 0.034 1.6024 C 60.3023,73.2141 56.227,73.252 56.1426,73.2531 v 0 c 0,0 0,0 -4e-4,0 H 56.141 v 0 c -0.084,-0.0011 -4.1594,-0.039 -9.873,1.1442 v -1.6364 c 0.0035,-0.2601 0.0066,-0.4437 0.0066,-0.4468 l 4e-4,-0.0137" /><path
       inkscape:connector-curvature="0"
       id="path74"
       style="fill:#25715e;fill-opacity:1;fill-rule:evenodd;stroke:none;stroke-width:0.1"
       d="m 49.7508,88.1531 0.4648,-1.3847 1.4574,-0.0129 -1.1699,-0.868 0.4371,-1.393 -1.1894,0.8465 -1.1887,-0.8465 0.4375,1.393 -1.1715,0.868 1.4586,0.0129 0.4641,1.3847" /><path
       inkscape:connector-curvature="0"
       id="path76"
       style="fill:#25715e;fill-opacity:1;fill-rule:evenodd;stroke:none;stroke-width:0.1"
       d="m 62.5328,88.1531 0.4652,-1.3847 1.4575,-0.0129 -1.1703,-0.868 0.4375,-1.393 -1.1899,0.8465 -1.1883,-0.8465 0.4371,1.393 -1.1711,0.868 1.4583,0.0129 0.464,1.3847" /><path
       inkscape:connector-curvature="0"
       id="path78"
       style="fill:#25715e;fill-opacity:1;fill-rule:evenodd;stroke:none;stroke-width:0.1"
       d="m 56.1422,87.6145 0.4648,-1.3844 1.4575,-0.0129 -1.1704,-0.868 0.4375,-1.3933 -1.1894,0.8464 -1.1887,-0.8464 0.4371,1.3933 -1.1711,0.868 1.4582,0.0129 0.4645,1.3844" /><path
       inkscape:connector-curvature="0"
       id="path80"
       style="fill:#25715e;fill-opacity:1;fill-rule:nonzero;stroke:none;stroke-width:0.1"
       d="m 56.1422,72.8852 -0.5113,-0.5114 v 0 -1.3859 l 0.2625,-0.7309 v -1.2375 h 0.4972 v 1.2375 l 0.2625,0.7309 v 0 1.3859 l -0.5109,0.5114" /><path
       inkscape:connector-curvature="0"
       id="path82"
       style="fill:#25715e;fill-opacity:1;fill-rule:nonzero;stroke:none;stroke-width:0.1"
       d="m 56.3906,67.9047 v 0.7414 h -0.4972 v -0.7414 l -0.2625,-0.4817 0.5113,-0.6328 0.5109,0.6328 -0.2625,0.4817" /><path
       inkscape:connector-curvature="0"
       id="path84"
       style="fill:#25715e;fill-opacity:1;fill-rule:nonzero;stroke:none;stroke-width:0.1"
       d="m 56.7613,68.6461 v -0.5699 l 0.3325,-0.3586 0.5757,0.4621 v 0.4664 h -0.9082" /><path
       inkscape:connector-curvature="0"
       id="path86"
       style="fill:#25715e;fill-opacity:1;fill-rule:nonzero;stroke:none;stroke-width:0.1"
       d="m 57.3781,70.9355 -0.6168,-0.6792 v -1.2368 h 0.4965 v 0.7356 l 0.4856,0.5254 4e-4,-4e-4 0.614,-0.3985 0.3957,0.3989 v 0.655 h -1.3754" /><path
       inkscape:connector-curvature="0"
       id="path88"
       style="fill:#25715e;fill-opacity:1;fill-rule:nonzero;stroke:none;stroke-width:0.1"
       d="m 55.5227,68.6461 v -0.5699 l -0.3325,-0.3586 -0.5757,0.4621 v 0.4664 h 0.9082" /><path
       inkscape:connector-curvature="0"
       id="path90"
       style="fill:#25715e;fill-opacity:1;fill-rule:nonzero;stroke:none;stroke-width:0.1"
       d="m 54.9055,70.9355 0.6172,-0.6792 v -1.2368 h -0.4969 v 0.7356 l -0.4856,0.5254 v -4e-4 l -0.614,-0.3985 -0.3957,0.3989 v 0.655 h 1.375" /><path
       inkscape:connector-curvature="0"
       id="path92"
       style="fill:#e0bfa2;fill-opacity:1;fill-rule:nonzero;stroke:none;stroke-width:0.1"
       d="M 60.8477,81.8594 V 75.991 h -3.9454 l -0.275,-0.2383 -0.4851,-0.4203 -0.4856,0.4203 -0.2753,0.2383 h -3.945 v 5.8684 l -0.8347,-0.6125 v -6.0864 h 4.6464 l 0.4086,-0.3539 0.4856,-0.4203 0.4851,0.4203 0.4086,0.3539 h 4.6465 v 6.0864 l -0.8347,0.6125" /><path
       inkscape:connector-curvature="0"
       id="path94"
       style="fill:#e0bfa2;fill-opacity:1;fill-rule:nonzero;stroke:none;stroke-width:0.1"
       d="m 56.7746,82.3488 -0.1473,-0.1273 -0.4851,-0.4203 -0.4856,0.4203 -0.1472,0.1273 h -3.2383 v -5.5285 h 3.2453 l 0.2262,-0.1961 0.3996,-0.3457 0.3992,0.3457 0.2262,0.1961 h 3.2453 v 5.5285 h -3.2383" /><path
       inkscape:connector-curvature="0"
       id="path96"
       style="fill:#e0bfa2;fill-opacity:1;fill-rule:nonzero;stroke:none;stroke-width:0.1"
       d="m 62.5332,80.6301 v -3.7453 c 1.0664,0.1547 2.2356,0.3547 3.4828,0.6129 v 3.7457 c -1.2472,-0.2582 -2.4164,-0.4582 -3.4828,-0.6133" /><path
       inkscape:connector-curvature="0"
       id="path98"
       style="fill:#e0bfa2;fill-opacity:1;fill-rule:nonzero;stroke:none;stroke-width:0.1"
       d="m 49.7508,80.6301 c -1.0668,0.1551 -2.2356,0.3551 -3.4828,0.6133 v -3.7457 c 1.2472,-0.2582 2.416,-0.4582 3.4828,-0.6129 v 3.7453" /><path
       inkscape:connector-curvature="0"
       id="path100"
       style="fill:#25715e;fill-opacity:1;fill-rule:nonzero;stroke:none;stroke-width:0.1"
       d="M 62.5328,73.3832 62.175,73.0254 v 0 -0.9703 l 0.184,-0.5117 V 70.677 h 0.348 v 0.8664 l 0.184,0.5117 v 0 0.9703 l -0.3582,0.3578" /><path
       inkscape:connector-curvature="0"
       id="path102"
       style="fill:#25715e;fill-opacity:1;fill-rule:nonzero;stroke:none;stroke-width:0.1"
       d="m 62.707,69.8961 v 0.5191 h -0.348 v -0.5191 l -0.184,-0.3371 0.3578,-0.443 0.3582,0.443 -0.184,0.3371" /><path
       inkscape:connector-curvature="0"
       id="path104"
       style="fill:#25715e;fill-opacity:1;fill-rule:nonzero;stroke:none;stroke-width:0.1"
       d="m 62.9668,70.4152 v -0.3988 l 0.2324,-0.2512 0.4031,0.3235 v 0.3265 h -0.6355" /><path
       inkscape:connector-curvature="0"
       id="path106"
       style="fill:#25715e;fill-opacity:1;fill-rule:nonzero;stroke:none;stroke-width:0.1"
       d="M 63.3984,72.0184 62.9668,71.543 v -0.866 h 0.3477 v 0.5148 l 0.3398,0.368 4e-4,-4e-4 0.4297,-0.2789 0.2769,0.2793 v 0.4586 h -0.9629" /><path
       inkscape:connector-curvature="0"
       id="path108"
       style="fill:#25715e;fill-opacity:1;fill-rule:nonzero;stroke:none;stroke-width:0.1"
       d="m 62.0992,70.4152 v -0.3988 l -0.2324,-0.2512 -0.4035,0.3235 v 0.3265 h 0.6359" /><path
       inkscape:connector-curvature="0"
       id="path110"
       style="fill:#25715e;fill-opacity:1;fill-rule:nonzero;stroke:none;stroke-width:0.1"
       d="m 61.6672,72.0184 0.432,-0.4754 v -0.866 h -0.3476 v 0.5148 l -0.3399,0.368 -4e-4,-4e-4 -0.4297,-0.2789 -0.2773,0.2793 v 0.4586 h 0.9629" /><path
       inkscape:connector-curvature="0"
       id="path112"
       style="fill:#25715e;fill-opacity:1;fill-rule:nonzero;stroke:none;stroke-width:0.1"
       d="m 49.7508,73.3832 -0.3582,-0.3578 v 0 -0.9703 l 0.184,-0.5117 V 70.677 h 0.348 v 0.8664 l 0.184,0.5117 v 0 0.9703 l -0.3578,0.3578" /><path
       inkscape:connector-curvature="0"
       id="path114"
       style="fill:#25715e;fill-opacity:1;fill-rule:nonzero;stroke:none;stroke-width:0.1"
       d="m 49.9246,69.8961 v 0.5191 h -0.348 v -0.5191 l -0.184,-0.3371 0.3582,-0.443 0.3578,0.443 -0.184,0.3371" /><path
       inkscape:connector-curvature="0"
       id="path116"
       style="fill:#25715e;fill-opacity:1;fill-rule:nonzero;stroke:none;stroke-width:0.1"
       d="m 50.1844,70.4152 v -0.3988 l 0.2328,-0.2512 0.4031,0.3235 v 0.3265 h -0.6359" /><path
       inkscape:connector-curvature="0"
       id="path118"
       style="fill:#25715e;fill-opacity:1;fill-rule:nonzero;stroke:none;stroke-width:0.1"
       d="m 50.6164,72.0184 -0.432,-0.4754 v -0.866 h 0.3476 v 0.5148 l 0.3399,0.368 4e-4,-4e-4 0.4297,-0.2789 0.2773,0.2793 v 0.4586 h -0.9629" /><path
       inkscape:connector-curvature="0"
       id="path120"
       style="fill:#25715e;fill-opacity:1;fill-rule:nonzero;stroke:none;stroke-width:0.1"
       d="m 49.3172,70.4152 v -0.3988 l -0.2328,-0.2512 -0.4031,0.3235 v 0.3265 h 0.6359" /><path
       inkscape:connector-curvature="0"
       id="path122"
       style="fill:#25715e;fill-opacity:1;fill-rule:nonzero;stroke:none;stroke-width:0.1"
       d="m 48.8852,72.0184 0.432,-0.4754 v -0.866 h -0.3481 v 0.5148 l -0.3398,0.368 v -4e-4 l -0.4301,-0.2789 -0.2769,0.2793 v 0.4586 h 0.9629" /></g></svg>